<?xml version="1.0" standalone="no"?>
<!DOCTYPE svg PUBLIC "-//W3C//DTD SVG 20010904//EN"
 "http://www.w3.org/TR/2001/REC-SVG-20010904/DTD/svg10.dtd">
<svg version="1.0" xmlns="http://www.w3.org/2000/svg"
 width="700.000000pt" height="700.000000pt" viewBox="0 0 700.000000 700.000000"
 preserveAspectRatio="xMidYMid meet">
<metadata>
Created by potrace 1.11, written by Peter Selinger 2001-2013
</metadata>
<g transform="translate(0.000000,700.000000) scale(0.100000,-0.100000)"
fill="#000000" stroke="none">
<path d="M2390 4994 c-259 -39 -448 -128 -622 -292 -155 -146 -234 -304 -259
-518 -27 -225 57 -532 193 -705 23 -30 270 -324 548 -652 278 -329 546 -648
596 -710 50 -62 119 -138 155 -171 129 -117 296 -211 451 -253 97 -27 289 -24
398 5 185 50 400 179 555 336 48 48 248 300 486 611 223 292 449 586 502 655
197 255 275 486 264 785 -5 163 -32 272 -98 393 -126 236 -365 418 -647 494
-60 16 -106 21 -207 20 -157 0 -275 -27 -412 -93 -196 -96 -287 -190 -606
-627 l-68 -92 -127 161 c-183 234 -308 376 -382 436 -79 63 -208 132 -312 168
-125 41 -309 63 -408 49z"/>
</g>
</svg>
