<svg width="93" height="31" viewBox="0 0 93 31" fill="none" xmlns="http://www.w3.org/2000/svg">
<path fill-rule="evenodd" clip-rule="evenodd" d="M0.693115 0.715179H93V25.4923H86.2921L88.3293 30.7309L78.7252 25.4923H14.7821V24.0348H79.0969L85.525 27.5411L84.1615 24.0348H91.5425V2.17266H2.15059V24.0348H11.6242V25.4923H0.693115V0.715179Z" fill="white"/>
<path d="M10.9286 9.77444C8.8641 9.77444 7.3642 11.1648 7.3642 13.3051C7.3642 15.3991 8.84725 16.7431 10.9286 16.7431H11.0255V17.8301H12.7571V16.7431H12.8582C14.9311 16.7431 16.4142 15.3822 16.4142 13.3093C16.4142 11.1648 14.9311 9.77444 12.8582 9.77444H12.7571V8.69586H11.0255V9.77444H10.9286ZM10.9286 11.2996H11.0255V15.2179H10.9286C9.83735 15.2179 9.05369 14.5859 9.05369 13.3051C9.05369 11.9611 9.81628 11.2996 10.9286 11.2996ZM12.7571 11.2996H12.8709C13.9705 11.2996 14.712 11.9737 14.712 13.3093C14.712 14.5649 13.9705 15.2179 12.8709 15.2179H12.7571V11.2996Z" fill="white"/>
<path d="M25.5095 13.1619C25.5095 10.339 23.7568 8.72957 21.469 8.72957C19.1686 8.72957 17.4285 10.339 17.4285 13.1619C17.4285 15.9721 19.1686 17.5941 21.469 17.5941C23.7568 17.5941 25.5095 15.9847 25.5095 13.1619ZM23.6599 13.1619C23.6599 14.9904 22.7919 15.9805 21.469 15.9805C20.1418 15.9805 19.2781 14.9904 19.2781 13.1619C19.2781 11.3333 20.1418 10.3432 21.469 10.3432C22.7919 10.3432 23.6599 11.3333 23.6599 13.1619Z" fill="white"/>
<path d="M26.6829 17.4762H28.5072V13.9118H32.2106V17.4762H34.0307V8.84754H32.2106V12.4077H28.5072V8.84754H26.6829V17.4762Z" fill="white"/>
<path d="M34.8892 19.5575H36.6419V17.4762H41.8452V19.5491H43.5979V16.0226H42.6541V8.84754H36.9452L36.7009 12.4962C36.5534 14.7544 36.0689 15.5929 35.4748 16.0226H34.8892V19.5575ZM37.5814 16.0226C38.0154 15.3106 38.3398 14.2025 38.4535 12.4962L38.5884 10.3516H40.9014V16.0226H37.5814Z" fill="white"/>
<path d="M46.7684 10.3516H49.4101V17.4762H51.2133V10.3516H53.855V8.84754H46.7684V10.3516Z" fill="white"/>
<path d="M54.8441 17.4762H58.5306C60.4687 17.4762 61.5009 16.465 61.5009 15.0915C61.5009 13.8149 60.5867 13.0439 59.605 12.9975V12.9133C60.5024 12.711 61.1639 12.0748 61.1639 11.0595C61.1639 9.76601 60.2033 8.84754 58.2989 8.84754H54.8441V17.4762ZM56.6684 15.9847V13.6927H58.1978C59.0741 13.6927 59.6176 14.1983 59.6176 14.9103C59.6176 15.5592 59.1753 15.9847 58.1557 15.9847H56.6684ZM56.6684 12.4583V10.3222H58.0545C58.8635 10.3222 59.3227 10.7393 59.3227 11.3628C59.3227 12.0454 58.7666 12.4583 58.0208 12.4583H56.6684Z" fill="white"/>
<path d="M62.51 17.4762H68.3411V15.9721H64.3344V13.9118H68.0251V12.4077H64.3344V10.3516H68.3243V8.84754H62.51V17.4762Z" fill="white"/>
<path d="M69.5967 17.4762H71.421V14.6786H72.9546C74.939 14.6786 76.0934 13.4947 76.0934 11.7715C76.0934 10.0567 74.9601 8.84754 73.001 8.84754H69.5967V17.4762ZM71.421 13.2166V10.339H72.6513C73.7046 10.339 74.2144 10.912 74.2144 11.7715C74.2144 12.6268 73.7046 13.2166 72.6597 13.2166H71.421Z" fill="white"/>
<path d="M77.1047 8.84754V17.4762H78.6804L82.4344 12.0454H82.4976V17.4762H84.3219V8.84754H82.7209L78.9964 14.2741H78.9206V8.84754H77.1047Z" fill="white"/>
</svg>
