<svg width="170" height="19" viewBox="0 0 170 19" fill="none" xmlns="http://www.w3.org/2000/svg">
<path d="M18.8899 15.1989C22.4482 15.1989 24.9553 13.3878 24.9411 10.8239C24.9553 9.04119 23.7621 7.78409 21.4183 7.52841V7.41477C23.1513 7.23011 24.4155 6.11506 24.4013 4.48864C24.4155 2.03835 22.1428 0.25568 18.9183 0.25568C15.6229 0.25568 13.2791 2.13778 13.2649 4.80114H17.0433C17.0575 3.92045 17.8317 3.29545 18.9183 3.29545C19.9127 3.29545 20.6087 3.89915 20.5945 4.74432C20.6087 5.625 19.7848 6.25 18.6058 6.25H17.1286V8.97727H18.6058C19.8842 8.97727 20.7791 9.60227 20.7649 10.483C20.7791 11.3849 20.0121 12.017 18.9183 12.017C17.782 12.017 16.9723 11.4134 16.9581 10.5682H12.9808C12.995 13.2812 15.4453 15.1989 18.8899 15.1989Z" fill="#FE6963"/>
<path d="M30.4542 15L31.2923 12.2159H36.0934L36.9315 15H41.1928L36.3917 0.454544H30.994L26.1928 15H30.4542ZM32.1872 9.26136L33.636 4.46023H33.7497L35.1985 9.26136H32.1872Z" fill="#FE6963"/>
<path d="M42.5938 15H48.0199C51.6847 15 54.1279 13.0114 54.1279 10.1136C54.1279 7.21591 51.6847 5.34091 48.0199 5.34091H46.5426V3.63636H52.821V0.454544H42.5938V15ZM46.5426 11.9034V8.35227H48.0199C49.4404 8.35227 50.2074 9.09091 50.2074 10.0852C50.2074 11.1364 49.4404 11.9034 48.0199 11.9034H46.5426Z" fill="#FE6963"/>
<path d="M69.6144 7.72727C69.6144 2.86932 66.4894 0.25568 62.5405 0.25568C58.5632 0.25568 55.4666 2.86932 55.4666 7.72727C55.4666 12.5568 58.5632 15.1989 62.5405 15.1989C66.4894 15.1989 69.6144 12.5852 69.6144 7.72727ZM65.5519 7.72727C65.5519 10.3409 64.5007 11.7614 62.5405 11.7614C60.5803 11.7614 59.5291 10.3409 59.5291 7.72727C59.5291 5.11363 60.5803 3.69318 62.5405 3.69318C64.5007 3.69318 65.5519 5.11363 65.5519 7.72727Z" fill="#FE6963"/>
<path d="M70.3601 3.63636H74.7351V15H78.6271V3.63636H83.0021V0.454544H70.3601V3.63636Z" fill="#FE6963"/>
<path d="M86.4112 15L87.2493 12.2159H92.0504L92.8885 15H97.1499L92.3487 0.454544H86.951L82.1499 15H86.4112ZM88.1442 9.26136L89.593 4.46023H89.7067L91.1555 9.26136H88.1442Z" fill="#FE6963"/>
<path d="M6.44886 14.5455H9.28977L9.83665 11.2216H11.7045L12.1875 8.38068H10.2983L10.6676 6.16477H12.5284L13.0114 3.32386H11.1293L11.6761 0H8.83523L8.28835 3.32386H6.01562L6.5625 0H3.72159L3.17472 3.32386H1.30682L0.823864 6.16477H2.71307L2.34375 8.38068H0.482955L0 11.2216H1.8821L1.33523 14.5455H4.17614L4.72301 11.2216H6.99574L6.44886 14.5455ZM5.18466 8.38068L5.55398 6.16477H7.8267L7.45739 8.38068H5.18466Z" fill="#3B3858"/>
<path d="M90.5 7L92.35 0.450001L94.5 7L95 15H93L90.5 7Z" fill="url(#paint0_linear)"/>
<path d="M93.9375 15H97.8864V10.6818H100.074C103.391 10.6818 105.614 8.72869 105.614 5.59659C105.614 2.5 103.447 0.454544 100.216 0.454544H93.9375V15ZM97.8864 7.61364V3.60795H99.2784C100.663 3.60795 101.494 4.34659 101.494 5.59659C101.494 6.83949 100.663 7.61364 99.2784 7.61364H97.8864Z" fill="#3B3858"/>
<path d="M118.54 15V0.454544H112.261C109.03 0.454544 106.864 2.30114 106.864 5.39773C106.864 7.41477 107.787 8.82812 109.335 9.57386L106.381 15H110.67L113.227 10.1989H114.591V15H118.54ZM114.591 7.13068H113.199C111.814 7.13068 110.983 6.64062 110.983 5.39773C110.983 4.14773 111.814 3.60795 113.199 3.60795H114.591V7.13068Z" fill="#3B3858"/>
<path d="M119.939 18.4943H123.746V15H131.53V18.4943H135.337V11.9602H133.803V0.454544H123.518L123.036 6.61932C122.751 10.1705 121.984 11.3352 120.962 11.9602H119.939V18.4943ZM125.479 11.9602C126.104 10.8807 126.643 9.28977 126.842 6.61932L127.07 3.63636H129.996V11.9602H125.479Z" fill="#3B3858"/>
<path d="M150.763 7.72727C150.763 2.86932 147.638 0.25568 143.689 0.25568C139.712 0.25568 136.615 2.86932 136.615 7.72727C136.615 12.5568 139.712 15.1989 143.689 15.1989C147.638 15.1989 150.763 12.5852 150.763 7.72727ZM146.7 7.72727C146.7 10.3409 145.649 11.7614 143.689 11.7614C141.729 11.7614 140.678 10.3409 140.678 7.72727C140.678 5.11363 141.729 3.69318 143.689 3.69318C145.649 3.69318 146.7 5.11363 146.7 7.72727Z" fill="#3B3858"/>
<path d="M152.59 0.454544V15H156.453V6.53409H156.567L159.806 14.8864H162.135L165.374 6.59091H165.488V15H169.351V0.454544H164.436L161.056 8.69318H160.885L157.505 0.454544H152.59Z" fill="#3B3858"/>
<defs>
<linearGradient id="paint0_linear" x1="97.5" y1="8" x2="92.5" y2="8" gradientUnits="userSpaceOnUse">
<stop/>
<stop offset="1" stop-opacity="0"/>
</linearGradient>
</defs>
</svg>
