<svg width="42" height="42" viewBox="0 0 42 42" fill="none" xmlns="http://www.w3.org/2000/svg">
<circle cx="21" cy="21" r="21" fill="white"/>
<path d="M23.5019 19.3046C23.5019 19.3046 20.1027 14.6667 18.9342 13.5577C17.7657 12.4486 14.4727 10.7939 11.0734 13.356C7.67421 15.9181 9.19678 20.1111 10.4361 21.4218L16.2234 28.2778C16.967 29.1852 18.9129 31 21.3774 31C23.8418 31 25.7327 29.1852 26.37 28.2778L31.7863 21.7791C31.8938 21.6806 31.9631 21.5926 32 21.5227L31.7863 21.7791C31.3775 22.1535 30.4176 22.6787 28.6008 22.9342C26.3063 23.2568 24.8828 20.9177 23.5019 19.3046Z" fill="url(#paint0_linear)"/>
<path d="M19.7611 19.689C19.7611 19.689 23.0987 14.8071 24.246 13.6397C25.3933 12.4722 28.6266 10.7305 31.9642 13.4274C35.3017 16.1244 33.8068 20.538 32.59 21.9177L27.0621 29.1345C26.332 30.0897 24.2669 32 21.8471 32C19.4274 32 17.5709 30.0897 16.9451 29.1345L11 21.5516C11.4172 21.8223 12.5019 23.17 14.7548 23.5097C17.0076 23.8493 18.4053 21.3871 19.7611 19.689Z" fill="#FE7679"/>
<defs>
<linearGradient id="paint0_linear" x1="12.1868" y1="14.3189" x2="22.5854" y2="26.8551" gradientUnits="userSpaceOnUse">
<stop stop-color="#FE7679"/>
<stop offset="1" stop-color="#FF0A10"/>
</linearGradient>
</defs>
</svg>
