<svg width="290" height="311" viewBox="0 0 290 311" fill="none" xmlns="http://www.w3.org/2000/svg">
<path d="M286.451 109.155C275.779 79.5619 242.789 81.0578 227.629 85.5048C225.81 47.9069 215.501 33.9593 152.433 24.8631C101.979 17.586 74.4074 69.1315 66.9283 95.8139C54.1935 90.154 23.994 88.2943 5.07374 126.135C-13.8465 163.975 24.6812 215.885 46.3101 237.109C46.7144 251.461 53.4659 283.439 77.2374 296.538C101.009 309.637 134.847 304.826 148.795 300.783L185.18 305.634C202.362 305.837 241.94 302.481 262.801 287.442C283.662 272.403 277.557 224.172 271.897 201.937C281.196 183.34 297.124 138.748 286.451 109.155Z" fill="#E1E4E9"/>
<path d="M240.678 209.166C246.67 211.818 242.62 220.769 239.846 224.913C240.124 225.741 242.343 226.57 241.511 229.885C241 231.919 239.569 234.029 238.182 234.858C239.569 236.515 241.843 240.825 239.846 244.803C237.35 249.776 225.7 249.776 226.532 251.433C227.364 253.091 231.525 263.036 225.7 268.009C219.875 272.982 209.889 263.865 210.721 270.495C211.554 277.125 204.064 285.413 199.071 287.071C194.079 288.728 189.086 284.584 185.757 279.612C182.429 274.639 168.282 274.639 167.45 273.81C166.784 273.147 170.501 263.036 172.443 258.064C177.158 255.854 187.421 249.444 190.75 241.488C194.079 233.532 202.677 233.753 206.561 234.858C206.006 232.924 205.396 227.896 207.393 223.255C209.889 217.454 222.371 223.255 223.203 220.769C224.036 218.282 233.189 205.851 240.678 209.166Z" fill="#93BDC8"/>
<path d="M235.558 104.995C241.549 107.647 237.5 116.598 234.726 120.742C235.003 121.571 237.222 122.4 236.39 125.715C235.88 127.749 234.449 129.859 233.062 130.687C234.449 132.345 236.723 136.655 234.726 140.633C232.229 145.605 220.58 145.605 221.412 147.263C222.244 148.921 226.405 158.866 220.58 163.838C214.755 168.811 204.769 159.695 205.601 166.325C206.433 172.955 198.944 181.243 193.951 182.9C188.958 184.558 183.965 180.414 180.637 175.441C177.308 170.469 163.162 170.469 162.33 169.64C161.664 168.977 165.381 158.866 167.322 153.893C172.038 151.683 182.301 145.274 185.63 137.318C188.958 129.361 197.557 129.582 201.44 130.687C200.885 128.754 200.275 123.726 202.272 119.085C204.769 113.283 217.251 119.085 218.083 116.598C218.915 114.112 228.069 101.68 235.558 104.995Z" fill="#93BDC8"/>
<path d="M49.7252 76.0886C43.7337 78.7407 47.7835 87.6915 50.5573 91.8354C50.2799 92.6641 48.0608 93.4929 48.893 96.808C49.4036 98.8421 50.8346 100.952 52.2215 101.781C50.8346 103.438 48.5601 107.748 50.5573 111.726C53.0538 116.699 64.7037 116.699 63.8715 118.356C63.0394 120.014 58.8787 129.959 64.7037 134.932C70.5287 139.904 80.5144 130.788 79.6822 137.418C78.8501 144.048 86.3393 152.336 91.3322 153.994C96.3251 155.651 101.318 151.507 104.646 146.535C107.975 141.562 122.121 141.562 122.954 140.733C123.619 140.07 119.902 129.959 117.961 124.986C113.245 122.776 102.982 116.367 99.6537 108.411C96.3251 100.455 87.7263 100.676 83.843 101.781C84.3977 99.8469 85.008 94.819 83.0108 90.1778C80.5144 84.3764 68.0323 90.1778 67.2001 87.6915C66.368 85.2052 57.2144 72.7735 49.7252 76.0886Z" fill="#93BDC8"/>
<path d="M114.647 114.157C119.014 116.583 138.298 113.955 147.394 112.338L208.036 143.871C210.663 143.467 216.647 141.688 219.558 137.807C222.468 133.926 218.345 128.913 215.919 126.892C217.536 125.881 220.77 120.949 220.77 109.305C220.77 97.6623 211.876 91.5172 207.429 89.9001C209.855 87.8787 215.191 82.8657 217.132 78.9846C219.072 75.1035 212.685 69.6862 209.248 67.4627C211.068 60.7921 213.008 43.9337 206.216 29.8648C199.424 15.7959 183.172 16.7257 175.895 18.9493C175.895 14.3001 173.349 4.15269 163.161 0.756748C152.973 -2.63919 145.575 6.21451 143.149 11.0659C136.074 5.81023 118.165 -1.42635 103.125 11.6723C88.0862 24.7709 99.689 44.621 107.37 52.9087C104.338 54.1215 98.5166 58.9728 99.4869 68.6755C100.457 78.3782 107.977 82.8253 111.615 83.836C107.775 87.0702 97.6332 88.6873 99.4869 99.6028C100.507 105.611 109.19 111.125 114.647 114.157Z" fill="#0C424C"/>
<path d="M147.193 95.8141C146.708 99.6951 142.139 103.9 139.916 105.517C138.703 106.527 136.035 108.913 135.064 110.368C133.852 112.187 133.245 115.219 133.852 118.252C134.458 121.284 139.309 122.496 146.586 124.316C153.863 126.135 175.088 120.677 176.301 118.858C177.271 117.403 172.258 111.379 169.63 108.549C167.811 106.325 163.809 100.059 162.353 92.782C160.534 83.6857 175.088 70.9509 175.694 70.3445C176.301 69.7381 170.843 64.8868 168.417 61.8547C166.477 59.429 166.8 54.3755 167.205 52.152C165.79 52.9605 162.596 54.5777 161.14 54.5777C159.685 54.5777 157.704 51.3434 156.895 49.7263C155.48 51.7477 151.438 55.9118 146.586 56.3969C140.522 57.0033 139.309 50.9392 138.703 52.7584C138.218 54.2138 134.054 56.5991 132.032 57.6097C131.022 60.0354 129.849 67.3124 133.245 77.0151C136.641 86.7178 144.363 89.5477 147.799 89.7499C147.799 90.1542 147.678 91.933 147.193 95.8141Z" fill="white"/>
<path d="M164.583 76.3464C160.611 81.1256 154.355 78.6487 159.793 72.0754C162.844 68.3918 169.074 70.9481 164.583 76.3464Z" fill="#FCE1DB"/>
<path d="M138.89 77.509C136.519 78.5422 134.296 72.1365 137.26 71.6052C140.505 71.0148 142.209 76.0625 138.89 77.509Z" fill="#FCE1DB"/>
<path d="M150.496 88.2748C150.252 88.3662 150.038 88.4114 149.908 88.403C148.815 88.2962 147.591 86.449 148.72 85.8374C149.228 85.5651 150.549 85.0487 151.344 86.1696C152.119 87.2659 151.217 87.9906 150.496 88.2748Z" fill="#FCE1DB"/>
<path d="M107.554 263.185C103.673 235.047 114.427 223.97 120.289 221.949C140.099 217.906 181.416 211.64 188.208 218.917C196.698 228.013 200.118 243.78 197.911 254.695C196.749 260.441 189.623 288.453 186.995 301.996C178.505 304.826 158.372 310.486 145.759 310.486C133.145 310.486 121.098 303.613 116.651 300.177C115.236 299.57 111.435 291.323 107.554 263.185Z" fill="#FE6963"/>
<path d="M93.8115 140.689C115.643 112.794 138.08 107.942 138.686 107.942C145.963 107.134 161.245 105.638 164.156 106.123C167.795 106.729 179.316 109.762 195.083 119.464C210.85 129.167 221.766 150.998 222.979 154.03C224.191 157.062 233.288 184.957 222.979 208.608C214.731 227.528 206.403 226.8 202.967 224.981C196.296 220.736 192.779 218.795 181.136 225.587C166.582 234.077 155.06 234.077 147.176 233.471C136.898 232.68 122.92 225.992 118.675 221.342C114.43 224.172 103.757 229.105 95.0244 226.194C86.292 223.283 80.4704 207.193 78.6511 199.511C76.4276 189.202 76.3467 163.005 93.8115 140.689Z" fill="white"/>
<path d="M147.966 81.2599C149.179 81.8663 149.179 81.8663 149.785 81.8663C151.241 81.8663 151.527 80.6591 152.926 80.1929" stroke="#0C424C" stroke-linecap="round"/>
<ellipse cx="140.082" cy="67.9188" rx="1.81925" ry="2.42567" fill="#0C424C"/>
<path d="M149.785 70.3445C148.596 70.5815 148.044 71.6312 148.264 72.7331C148.382 73.3278 149.155 74.22 150.345 73.9829" stroke="#0C424C" stroke-linecap="round"/>
<ellipse cx="159.488" cy="66.7059" rx="1.81925" ry="2.42567" fill="#0C424C"/>
<rect x="134.625" y="60.6337" width="6.06418" height="2.42567" rx="1.21284" transform="rotate(-36.7739 134.625 60.6337)" fill="#0C424C"/>
<rect width="6.06418" height="2.42567" rx="1.21284" transform="matrix(-0.801004 -0.598659 -0.598659 0.801004 165.191 60.6337)" fill="#0C424C"/>
<path d="M137.05 108.549C139.476 110.368 146.025 113.885 152.817 113.4C159.609 112.915 166.158 109.155 168.584 107.336" stroke="#EEEEEE" stroke-linecap="round"/>
<path d="M94.6921 133.594C95.9056 146.942 108.041 162.718 110.468 166.359L146.874 165.145C139.997 155.033 133.525 135.05 128.671 126.312C123.277 116.604 115.322 112.964 104.4 116.604C100.76 117.818 93.7213 122.915 94.6921 133.594Z" fill="#FED0A7"/>
<rect x="101.882" y="137.42" width="19.4165" height="6.67739" rx="3.3387" transform="rotate(-40.0462 101.882 137.42)" fill="#F5890C"/>
<rect x="106.736" y="147.129" width="19.4165" height="6.67739" rx="3.3387" transform="rotate(-40.0462 106.736 147.129)" fill="#F5890C"/>
<rect x="111.591" y="156.837" width="19.4165" height="6.67739" rx="3.3387" transform="rotate(-40.0462 111.591 156.837)" fill="#F5890C"/>
<path d="M180.533 178.656L193.695 126.008L178.888 114.491L167.371 167.139L180.533 178.656Z" fill="#FE6963"/>
<path d="M180.533 177.011L193.695 126.008L215.083 122.718L201.921 175.365L180.533 177.011Z" fill="#FE6963"/>
<path d="M200.276 112.846L215.083 122.718L193.695 126.008L178.888 114.491L200.276 112.846Z" fill="#FE6963"/>
<path d="M180.533 116.137L193.695 126.008L212.051 123.63" stroke="white" stroke-linecap="round"/>
<path d="M192.05 130.944L182.178 170.43" stroke="white" stroke-linecap="round"/>
<rect x="120.071" y="116.949" width="39.4857" height="52.6476" fill="#33AFC6"/>
<path d="M159.556 116.949L172.718 110.368V163.016L159.556 169.597V116.949Z" fill="#33AFC6"/>
<path d="M133.233 110.368H172.718L159.556 116.949H120.071L133.233 110.368Z" fill="#33AFC6"/>
<path d="M123.361 118.094C123.085 118.094 122.861 118.318 122.861 118.594C122.861 118.87 123.085 119.094 123.361 119.094V118.094ZM161.202 118.594V119.094H161.34L161.459 119.023L161.202 118.594ZM169.685 114.087C169.922 113.945 169.999 113.638 169.856 113.401C169.714 113.165 169.407 113.088 169.17 113.23L169.685 114.087ZM123.361 119.094H161.202V118.094H123.361V119.094ZM161.459 119.023L169.685 114.087L169.17 113.23L160.944 118.166L161.459 119.023Z" fill="white"/>
<path d="M160.702 159.725C160.702 160.001 160.925 160.225 161.202 160.225C161.478 160.225 161.702 160.001 161.702 159.725H160.702ZM161.702 123.53C161.702 123.254 161.478 123.03 161.202 123.03C160.925 123.03 160.702 123.254 160.702 123.53H161.702ZM161.702 159.725V135.047H160.702V159.725H161.702ZM161.702 135.047V123.53H160.702V135.047H161.702Z" fill="white"/>
<path fill-rule="evenodd" clip-rule="evenodd" d="M167.237 135.372H143.115V161.685C143.115 161.686 143.115 161.687 143.115 161.688C143.115 164.11 148.515 166.074 155.176 166.074C161.837 166.074 167.237 164.11 167.237 161.688C167.237 161.688 167.237 161.688 167.237 161.688V135.372Z" fill="#C4C4C4"/>
<ellipse cx="155.176" cy="135.372" rx="12.0614" ry="4.38597" fill="#DCDCDC"/>
<path d="M145.308 144.144C146.404 144.875 149.693 146.337 155.176 146.337C160.658 146.337 163.948 144.875 165.044 144.144" stroke="white" stroke-linecap="round"/>
<path d="M145.308 148.53C146.404 149.261 149.693 150.723 155.176 150.723C160.658 150.723 163.948 149.261 165.044 148.53" stroke="white" stroke-linecap="round"/>
<path d="M145.308 152.916C146.404 153.647 149.693 155.109 155.176 155.109C160.658 155.109 163.948 153.647 165.044 152.916" stroke="white" stroke-linecap="round"/>
<path d="M145.308 157.302C146.404 158.033 149.693 159.495 155.176 159.495C160.658 159.495 163.948 158.033 165.044 157.302" stroke="white" stroke-linecap="round"/>
<path fill-rule="evenodd" clip-rule="evenodd" d="M138.814 130.967L118.91 144.595L133.77 166.299C133.773 166.302 133.775 166.305 133.777 166.309C135.146 168.307 140.711 166.877 146.207 163.114C151.704 159.35 155.05 154.679 153.682 152.681C153.681 152.681 153.681 152.681 153.681 152.681L153.682 152.681L138.814 130.967Z" fill="#C4C4C4"/>
<ellipse cx="128.862" cy="137.781" rx="12.0614" ry="4.38597" transform="rotate(-34.3987 128.862 137.781)" fill="#DCDCDC"/>
<path d="M125.675 150.594C126.993 150.578 130.533 149.926 135.057 146.828C139.58 143.731 141.469 140.666 141.961 139.444" stroke="white" stroke-linecap="round"/>
<path d="M128.153 154.213C129.471 154.196 133.011 153.544 137.535 150.447C142.058 147.35 143.947 144.285 144.438 143.062" stroke="white" stroke-linecap="round"/>
<path d="M130.631 157.832C131.949 157.816 135.489 157.164 140.012 154.066C144.536 150.969 146.424 147.904 146.916 146.682" stroke="white" stroke-linecap="round"/>
<path d="M133.109 161.451C134.426 161.435 137.967 160.783 142.49 157.685C147.014 154.588 148.902 151.523 149.394 150.301" stroke="white" stroke-linecap="round"/>
<rect x="92.3151" y="152.926" width="121.222" height="73.6656" rx="4" fill="#FFCDA8"/>
<path d="M190.416 229.276C183.139 229.883 186.979 227.204 186.777 226.194C186.777 225.789 186.17 224.374 186.777 223.212C189.285 220.704 188.789 222.946 191.628 221.999C192.811 221.605 194.406 223.162 195.873 223.162C197.229 223.162 196.479 224.981 197.086 226.194C197.571 227.164 200.724 226.8 202.543 226.8C202.543 226.8 200.725 229.883 197.086 230.489C193.448 231.096 195.873 230.489 190.416 229.276Z" fill="white"/>
<path d="M117.645 229.29C124.922 229.896 121.081 227.218 121.283 226.207C121.283 225.803 121.89 224.388 121.283 223.226C118.775 220.717 119.271 222.959 116.432 222.013C115.249 221.619 113.654 223.175 112.187 223.175C110.831 223.175 111.581 224.994 110.974 226.207C110.489 227.177 107.336 226.813 105.517 226.813C105.517 226.813 107.335 229.896 110.974 230.503C114.612 231.109 112.187 230.503 117.645 229.29Z" fill="white"/>
<path d="M196.479 224.981C196.479 223.768 196.358 223.162 195.873 223.162C195.266 223.162 184.957 219.523 186.777 224.981" stroke="#0C424C" stroke-linecap="round" stroke-linejoin="round"/>
<path d="M111.581 224.994C111.581 223.781 111.702 223.175 112.188 223.175C112.794 223.175 121.89 219.523 121.284 224.374" stroke="#0C424C" stroke-linecap="round" stroke-linejoin="round"/>
<path d="M188.541 228.78C188.266 228.81 188.069 229.057 188.099 229.332C188.13 229.606 188.377 229.804 188.651 229.774L188.541 228.78ZM195.873 230.489V230.989H195.904L195.935 230.986L195.873 230.489ZM203.043 226.8C203.043 226.524 202.82 226.3 202.543 226.3C202.267 226.3 202.043 226.524 202.043 226.8H203.043ZM188.651 229.774C189.714 229.655 190.441 229.673 190.989 229.756C191.53 229.838 191.917 229.986 192.304 230.158C192.689 230.329 193.12 230.547 193.673 230.711C194.237 230.878 194.922 230.989 195.873 230.989V229.989C195.005 229.989 194.417 229.888 193.957 229.752C193.486 229.613 193.145 229.437 192.711 229.244C192.28 229.053 191.802 228.867 191.138 228.767C190.48 228.668 189.662 228.655 188.541 228.78L188.651 229.774ZM195.935 230.986C198.443 230.672 200.192 229.84 201.325 229.001C201.89 228.583 202.303 228.161 202.58 227.8C202.718 227.62 202.827 227.45 202.903 227.296C202.97 227.162 203.043 226.982 203.043 226.8H202.043C202.043 226.74 202.06 226.747 202.008 226.85C201.966 226.934 201.895 227.051 201.787 227.192C201.571 227.473 201.226 227.83 200.73 228.198C199.741 228.93 198.155 229.7 195.811 229.993L195.935 230.986Z" fill="#0C424C"/>
<path d="M119.519 228.793C119.794 228.823 119.991 229.071 119.961 229.345C119.93 229.62 119.683 229.817 119.409 229.787L119.519 228.793ZM112.187 230.503V231.003H112.156L112.125 230.999L112.187 230.503ZM105.017 226.813C105.017 226.537 105.241 226.313 105.517 226.313C105.793 226.313 106.017 226.537 106.017 226.813H105.017ZM119.409 229.787C118.346 229.669 117.619 229.686 117.071 229.769C116.53 229.851 116.144 229.999 115.756 230.171C115.372 230.342 114.94 230.561 114.387 230.724C113.823 230.891 113.138 231.003 112.187 231.003V230.003C113.055 230.003 113.644 229.902 114.103 229.766C114.574 229.626 114.915 229.451 115.35 229.257C115.78 229.066 116.258 228.881 116.922 228.78C117.58 228.681 118.399 228.668 119.519 228.793L119.409 229.787ZM112.125 230.999C109.618 230.685 107.868 229.854 106.735 229.014C106.17 228.596 105.757 228.175 105.48 227.814C105.342 227.634 105.233 227.463 105.157 227.31C105.09 227.175 105.017 226.995 105.017 226.813H106.017C106.017 226.753 106 226.76 106.052 226.863C106.094 226.947 106.165 227.064 106.273 227.205C106.489 227.486 106.834 227.843 107.33 228.211C108.319 228.943 109.905 229.714 112.249 230.007L112.125 230.999Z" fill="#0C424C"/>
<circle cx="49.7262" cy="152.817" r="3.63851" fill="#FE6963"/>
<circle cx="21.831" cy="118.858" r="3.63851" fill="#FE6963"/>
<circle cx="257.121" cy="66.706" r="3.63851" fill="#FE6963"/>
<circle cx="286.229" cy="259.547" r="3.63851" fill="#FE6963"/>
<circle cx="25.4696" cy="270.462" r="3.63851" fill="#FE6963"/>
<circle cx="219.523" cy="259.547" r="3.63851" fill="#FE6963"/>
<circle cx="57.6096" cy="89.1433" r="1.81925" fill="#FE6963"/>
<circle cx="73.3765" cy="45.4812" r="1.81925" fill="#FE6963"/>
</svg>
