<svg width="359" height="354" viewBox="0 0 359 354" fill="none" xmlns="http://www.w3.org/2000/svg">
<path d="M354.607 111.075C341.395 74.4874 300.557 76.3367 281.789 81.8348C279.537 35.3511 266.775 18.1071 188.702 6.86102C126.243 -2.13583 92.1113 61.5919 82.8526 94.5803C67.0879 87.5828 29.7029 85.2836 6.28095 132.067C-17.141 178.851 30.5537 243.028 57.3288 269.269C57.8292 287.013 66.187 326.549 95.6146 342.743C125.042 358.938 166.931 352.99 184.198 347.992L229.24 353.99C250.51 354.239 299.506 350.091 325.33 331.497C351.154 312.904 343.597 253.275 336.59 225.784C348.101 202.792 367.82 147.662 354.607 111.075Z" fill="#E1E4E9"/>
<path d="M224.307 261.558C230.299 264.21 226.249 273.161 223.475 277.305C223.752 278.134 225.972 278.962 225.139 282.278C224.629 284.312 223.198 286.421 221.811 287.25C223.198 288.908 225.472 293.217 223.475 297.195C220.979 302.168 209.329 302.168 210.161 303.826C210.993 305.483 215.154 315.429 209.329 320.401C203.504 325.374 193.518 316.257 194.35 322.888C195.182 329.518 187.693 337.806 182.7 339.463C177.707 341.121 172.715 336.977 169.386 332.004C166.057 327.031 151.911 327.031 151.079 326.203C150.413 325.54 154.13 315.429 156.072 310.456C160.787 308.246 171.05 301.837 174.379 293.88C177.707 285.924 186.306 286.145 190.189 287.25C189.635 285.316 189.024 280.288 191.022 275.647C193.518 269.846 206 275.647 206.832 273.161C207.664 270.675 216.818 258.243 224.307 261.558Z" fill="#93BDC8"/>
<path d="M26.0589 133.729C18.2176 137.194 23.5178 148.889 27.148 154.303C26.785 155.386 23.8807 156.469 24.9698 160.8C25.638 163.457 27.5109 166.214 29.3261 167.297C27.5109 169.462 24.5342 175.093 27.148 180.291C30.4153 186.788 45.6621 186.788 44.573 188.953C43.4839 191.119 38.0386 204.113 45.6621 210.61C53.2856 217.107 66.3544 205.196 65.2653 213.858C64.1762 222.521 73.9778 233.349 80.5123 235.515C87.0467 237.681 93.5811 232.267 97.9373 225.77C102.294 219.273 120.808 219.273 121.897 218.19C122.768 217.323 117.904 204.113 115.362 197.616C109.191 194.728 95.7593 186.355 91.403 175.959C87.0467 165.564 75.793 165.853 70.7107 167.297C71.4368 164.77 72.2354 158.201 69.6217 152.137C66.3544 144.557 50.0184 152.137 48.9294 148.889C47.8403 145.64 35.8605 129.398 26.0589 133.729Z" fill="#93BDC8"/>
<path d="M309.009 177.922L314.431 172.716L315.202 174.096L313.986 178.399L312.063 182.735L309.064 186.767L306.304 188.311L299.708 191.094L297.285 192.268L296.513 190.888L295.447 183.15L298.273 183.02L301.337 180.4L304.336 176.368L306.291 172.738L308.714 171.564L308.78 172.977L306.553 178.389L309.009 177.922Z" fill="white"/>
<path d="M294 182.51C294.728 182.949 297.706 182.633 298.486 182.197C302.627 179.882 304.821 173.764 305.495 173.025C306.169 172.286 307.516 170.807 308.592 171.112C309.668 171.416 306.397 177.23 306.43 177.936C306.456 178.501 308.303 177.614 309.223 177.099" stroke="#0C424C" stroke-linecap="round" stroke-linejoin="round"/>
<path d="M315.38 172.406C315.128 172.294 314.832 172.408 314.72 172.66C314.609 172.913 314.722 173.208 314.975 173.32L315.38 172.406ZM308.398 186.98L308.154 186.543L308.398 186.98ZM314.975 173.32C315.04 173.349 315.177 173.466 315.17 173.983C315.163 174.464 315.026 175.103 314.808 175.806C314.373 177.204 313.662 178.711 313.282 179.418L314.162 179.892C314.564 179.147 315.304 177.579 315.763 176.103C315.99 175.37 316.161 174.623 316.17 173.997C316.178 173.407 316.038 172.698 315.38 172.406L314.975 173.32ZM313.282 179.418C312.764 180.379 312.16 181.755 311.302 183.158C310.452 184.547 309.42 185.835 308.154 186.543L308.642 187.416C310.135 186.581 311.277 185.114 312.155 183.68C313.024 182.26 313.702 180.746 314.162 179.892L313.282 179.418ZM308.154 186.543C305.966 187.766 299.198 190.949 296.072 192.395L296.491 193.303C299.602 191.864 306.413 188.662 308.642 187.416L308.154 186.543Z" fill="#0C424C"/>
<path d="M123.5 97.5L136 124.5L168.5 126.5L174 114.5C180.333 104.5 193 84.2 193 83V60L175.5 48.5L130.5 52L123.5 97.5Z" fill="white"/>
<path d="M148.326 84.6106C149.664 91.292 156.991 92.1664 155.173 82.9895C154.153 77.8456 146.81 77.0612 148.326 84.6106Z" fill="#FCE1DB"/>
<path d="M168.302 96.6786C170.051 98.912 175.535 93.8929 172.954 91.8347C170.132 89.5724 165.856 93.5524 168.302 96.6786Z" fill="#FCE1DB"/>
<path d="M150.121 103.43C150.309 103.646 150.493 103.801 150.622 103.86C151.732 104.327 153.876 103.184 153.106 102.006C152.758 101.478 151.753 100.291 150.402 100.957C149.082 101.61 149.575 102.78 150.121 103.43Z" fill="#FCE1DB"/>
<path d="M191.093 306.674C195.361 275.546 189.447 253.736 183 251.5C161.213 247.028 109.86 249.652 102.39 257.702C93.0527 267.765 89.2913 285.207 91.7188 297.282C92.9965 303.638 101.61 331.518 104.5 346.5C113.837 349.631 128 354 145 353C158.848 352.185 176 350.5 184 348.5C185.556 347.829 186.824 337.801 191.093 306.674Z" fill="#FE6963"/>
<path d="M155.609 97.6164C154.123 97.5687 154.123 97.5687 153.538 97.2524C152.134 96.4932 152.487 95.1793 151.381 94" stroke="#0C424C" stroke-linecap="round"/>
<ellipse rx="1.99484" ry="2.65979" transform="matrix(-0.879617 -0.475683 -0.475683 0.879617 175.528 81.2885)" fill="#0C424C"/>
<path d="M165.729 83.3699C166.753 84.2189 166.737 85.5191 165.951 86.4674C165.526 86.9792 164.315 87.4363 163.291 86.5873" stroke="#0C424C" stroke-linecap="round"/>
<ellipse rx="1.99484" ry="2.65979" transform="matrix(-0.879617 -0.475683 -0.475683 0.879617 158.269 74.7996)" fill="#0C424C"/>
<rect width="6.64947" height="2.65979" rx="1.32989" transform="matrix(-0.419804 -0.907615 -0.907615 0.419804 182.714 76.0352)" fill="#0C424C"/>
<rect x="152.509" y="65.968" width="6.64947" height="2.65979" rx="1.32989" transform="rotate(-8.37007 152.509 65.968)" fill="#0C424C"/>
<path d="M60.9085 204.5C47.9085 145.5 104.409 125.5 136.909 121L181.408 120C191.575 124.833 211.708 141.3 210.908 168.5C210.108 195.7 193.908 235.833 185.908 252.5C178.908 255.667 174.576 262.569 151.408 264.5C133.408 266 119.242 260 113.408 256.5C102.742 262 73.217 260.361 60.9085 204.5Z" fill="white"/>
<path d="M289.5 182L295.253 182C295.262 182.898 295.405 184.151 296.545 186.739C297.684 189.328 299.533 190.767 300.5 191.5L296.545 195C295.414 193.309 291.235 192.229 290.073 189.589C288.364 185.706 288.775 183.864 289.5 182Z" fill="#A9CCDF"/>
<path d="M220.024 150C208.024 136.8 189.357 124.5 181.524 120L179.024 216C178.524 217.5 185.724 221.4 218.524 225C251.324 228.6 284.524 206.167 297.024 194.5C295.69 193.833 292.624 191.8 291.024 189C289.424 186.2 290.357 183.167 291.024 182C283.024 181.5 265.024 180 257.024 178C247.024 175.5 235.024 166.5 220.024 150Z" fill="white"/>
<path d="M107.059 166.529C107.853 175.256 115.787 185.571 117.374 187.951L141.176 187.157C136.68 180.546 132.449 167.481 129.275 161.768C125.749 155.421 120.548 153.041 113.407 155.421C111.027 156.214 106.425 159.547 107.059 166.529Z" fill="#FED0A7"/>
<rect x="111.76" y="169.03" width="12.6946" height="4.3657" rx="2.18285" transform="rotate(-40.0462 111.76 169.03)" fill="#F5890C"/>
<rect x="114.934" y="175.378" width="12.6946" height="4.3657" rx="2.18285" transform="rotate(-40.0462 114.934 175.378)" fill="#F5890C"/>
<rect x="118.108" y="181.725" width="12.6946" height="4.3657" rx="2.18285" transform="rotate(-40.0462 118.108 181.725)" fill="#F5890C"/>
<path d="M163.183 195.99L171.788 161.569L162.107 154.04L154.577 188.461L163.183 195.99Z" fill="#FE6963"/>
<path d="M163.183 194.915L171.788 161.569L185.772 159.418L177.166 193.839L163.183 194.915Z" fill="#FE6963"/>
<path d="M176.091 152.964L185.772 159.418L171.788 161.569L162.107 154.04L176.091 152.964Z" fill="#FE6963"/>
<path d="M163.183 155.115L171.788 161.569L183.789 160.015" stroke="white" stroke-linecap="round"/>
<path d="M170.712 164.796L164.258 190.612" stroke="white" stroke-linecap="round"/>
<rect x="123.652" y="155.646" width="25.8159" height="34.4212" fill="#33AFC6"/>
<path d="M149.468 155.646L158.073 151.344V185.765L149.468 190.067V155.646Z" fill="#33AFC6"/>
<path d="M132.257 151.344H158.073L149.468 155.646H123.652L132.257 151.344Z" fill="#33AFC6"/>
<path d="M125.803 156.222C125.527 156.222 125.303 156.446 125.303 156.722C125.303 156.998 125.527 157.222 125.803 157.222V156.222ZM150.544 156.722V157.222H150.682L150.801 157.151L150.544 156.722ZM156.179 153.924C156.416 153.782 156.493 153.475 156.351 153.238C156.209 153.001 155.902 152.924 155.665 153.066L156.179 153.924ZM125.803 157.222H150.544V156.222H125.803V157.222ZM150.801 157.151L156.179 153.924L155.665 153.066L150.286 156.293L150.801 157.151Z" fill="white"/>
<path d="M150.044 183.613C150.044 183.89 150.268 184.113 150.544 184.113C150.82 184.113 151.044 183.89 151.044 183.613H150.044ZM151.044 159.949C151.044 159.673 150.82 159.449 150.544 159.449C150.268 159.449 150.044 159.673 150.044 159.949H151.044ZM151.044 183.613V167.478H150.044V183.613H151.044ZM151.044 167.478V159.949H150.044V167.478H151.044Z" fill="white"/>
<path fill-rule="evenodd" clip-rule="evenodd" d="M154.49 167.691H138.719V184.897C138.719 184.897 138.719 184.897 138.719 184.897C138.719 186.481 142.249 187.764 146.604 187.764C150.96 187.764 154.49 186.481 154.49 184.897C154.49 184.896 154.49 184.895 154.49 184.894V167.691Z" fill="#C4C4C4"/>
<ellipse cx="146.604" cy="167.691" rx="7.88579" ry="2.86756" fill="#DCDCDC"/>
<path d="M140.152 173.427C140.869 173.905 143.02 174.86 146.604 174.86C150.189 174.86 152.339 173.905 153.056 173.427" stroke="white" stroke-linecap="round"/>
<path d="M140.152 176.294C140.869 176.772 143.02 177.728 146.604 177.728C150.189 177.728 152.339 176.772 153.056 176.294" stroke="white" stroke-linecap="round"/>
<path d="M140.152 179.162C140.869 179.64 143.02 180.596 146.604 180.596C150.189 180.596 152.339 179.64 153.056 179.162" stroke="white" stroke-linecap="round"/>
<path d="M140.152 182.029C140.869 182.507 143.02 183.463 146.604 183.463C150.189 183.463 152.339 182.507 153.056 182.029" stroke="white" stroke-linecap="round"/>
<path fill-rule="evenodd" clip-rule="evenodd" d="M135.907 164.811L122.893 173.721L132.608 187.91C132.61 187.913 132.612 187.915 132.613 187.918C133.508 189.225 137.147 188.289 140.74 185.829C144.334 183.369 146.522 180.315 145.627 179.008C145.627 179.008 145.627 179.008 145.627 179.008L145.627 179.008L135.907 164.811Z" fill="#C4C4C4"/>
<ellipse cx="129.4" cy="169.266" rx="7.88579" ry="2.86756" transform="rotate(-34.3987 129.4 169.266)" fill="#DCDCDC"/>
<path d="M127.316 177.644C128.178 177.633 130.492 177.207 133.45 175.182C136.408 173.157 137.642 171.153 137.964 170.353" stroke="white" stroke-linecap="round"/>
<path d="M128.936 180.01C129.798 179.999 132.112 179.573 135.07 177.548C138.028 175.522 139.262 173.519 139.584 172.719" stroke="white" stroke-linecap="round"/>
<path d="M130.556 182.376C131.418 182.365 133.732 181.939 136.69 179.914C139.648 177.889 140.882 175.885 141.204 175.086" stroke="white" stroke-linecap="round"/>
<path d="M132.176 184.742C133.038 184.731 135.352 184.305 138.31 182.28C141.268 180.255 142.502 178.251 142.824 177.452" stroke="white" stroke-linecap="round"/>
<path d="M111 231.5L110 180.5L181.5 182L179 214.5L111 231.5Z" fill="#FF8903"/>
<path d="M132 181V221" stroke="#EE6400"/>
<path d="M129.361 220.251C139.766 223.236 160.123 218.177 169 215.274L167.142 233.313C154.548 240.363 126.76 254.711 116.355 255.706C105.95 256.702 83.1161 242.436 73 235.179V168L93.5 174.756L102.11 204.078C106.858 208.225 118.956 217.265 129.361 220.251Z" fill="white"/>
<path d="M133 122.5C132.667 122.833 130.2 123.7 123 124.5C131.5 143 139.5 145.5 154 144C165.545 142.806 171.333 128.5 173 121L167 120L166.994 120.017C165.49 124.026 162.086 133.103 152.5 135.5C142.9 137.9 134.833 127.667 133 122.5Z" fill="#9CC4DD"/>
<path d="M175.009 122.2C164.209 123.8 160.842 112.533 160.509 106.7C176.009 104.2 185.461 92.9805 186.009 78.1999C184.842 76.8666 183.209 74.2999 182.009 72.6999C180.809 71.0999 181.509 68.0332 182.009 66.6999C179.009 66.6999 172.509 66.1999 170.509 64.1999C168.509 62.1999 168.675 60.3666 169.009 59.6999C166.675 60.6999 161.609 62.6999 160.009 62.6999C158.409 62.6999 155.009 60.6999 153.509 59.6999C152.342 61.3666 149.409 65.0999 147.009 66.6999C144.609 68.2999 140.342 67.6999 138.509 67.1999C141.342 69.6999 147.009 76.2999 147.009 82.6999C147.009 89.0999 140.009 93.6999 136.509 95.1999C139.842 98.3666 146.009 106.9 144.009 115.7C141.509 126.7 123.509 125.2 108.009 128.2C92.5087 131.2 81.5087 151.2 74.0087 144.2C68.0087 138.6 72.842 122.2 76.0087 114.7C69.1753 112.7 55.6087 104.8 56.0087 89.1999C56.4087 73.5999 72.1753 67.0332 80.0087 65.6999C73.5087 55.0332 65.3087 29.7999 84.5087 14.1999C103.709 -1.40011 124.175 10.6999 132.009 18.6999C135.342 11.6999 146.109 -1.8001 162.509 0.199904C178.909 2.1999 185.675 19.3666 187.009 27.6999C192.675 25.3666 205.409 23.8999 211.009 36.6999C216.609 49.4999 209.342 62.0332 205.009 66.6999C207.509 65.6999 212.509 67.2999 212.509 81.6999C212.509 96.0999 200.842 99.6999 195.009 99.6999C192.842 106.533 185.809 120.6 175.009 122.2Z" fill="#0C424C"/>
<path d="M180 204.5L180.5 197L182 197.5L184 201.5L185.5 206L186 211L185 214L182 220.5L181 223L179.5 222.5L173.5 217.5L175.5 215.5L176 211.5L175.5 206.5L174.5 202.5L175.5 200L176.5 201L178.5 206.5L180 204.5Z" fill="white"/>
<path d="M172 217.036C172.833 216.869 175.217 215.884 175.5 215.036C177 210.536 174.5 204.536 174.5 203.536C174.5 202.536 174.5 200.536 175.5 200.036C176.5 199.536 178 206.036 178.5 206.536C178.9 206.936 179.667 205.036 180 204.036" stroke="#0C424C" stroke-linecap="round" stroke-linejoin="round"/>
<path d="M180.842 196.561C180.58 196.649 180.438 196.932 180.526 197.194C180.613 197.456 180.896 197.597 181.158 197.51L180.842 196.561ZM185.5 212.036L185.026 211.877L185.5 212.036ZM181.158 197.51C181.225 197.488 181.406 197.482 181.749 197.869C182.069 198.229 182.397 198.793 182.71 199.46C183.33 200.786 183.82 202.378 184.015 203.157L184.985 202.914C184.78 202.093 184.27 200.436 183.615 199.036C183.29 198.341 182.913 197.674 182.498 197.205C182.106 196.764 181.525 196.334 180.842 196.561L181.158 197.51ZM184.015 203.157C184.28 204.216 184.761 205.64 185.071 207.255C185.379 208.854 185.485 210.501 185.026 211.877L185.974 212.194C186.515 210.57 186.371 208.717 186.054 207.066C185.739 205.431 185.22 203.855 184.985 202.914L184.015 203.157ZM185.026 211.877C184.233 214.255 181.376 221.167 180.039 224.342L180.961 224.73C182.291 221.571 185.167 214.616 185.974 212.194L185.026 211.877Z" fill="#0C424C"/>
<path d="M168.5 215.5L173.5 214C173.833 214.833 175 217 177 219C179 221 181.833 222.167 183 222.5L179.5 229C177.833 227.833 174.04 226.04 172 224C169 221 168.5 217.5 168.5 215.5Z" fill="#A9CCDF"/>
<path d="M179.5 228.5C175 235.833 162.2 251.2 147 254C131.8 256.8 119.333 255.833 115 255" stroke="#A9CCDF"/>
<circle cx="308" cy="131" r="33" fill="white"/>
<path d="M311.931 128.336C311.931 128.336 306.59 121.048 304.754 119.305C302.917 117.562 297.743 114.962 292.401 118.988C287.059 123.014 289.452 129.603 291.399 131.663L300.494 142.437C301.662 143.862 304.72 146.714 308.593 146.714C312.466 146.714 315.437 143.862 316.439 142.437L324.95 132.224C325.119 132.07 325.228 131.931 325.286 131.821L324.95 132.224C324.307 132.813 322.799 133.638 319.944 134.039C316.338 134.546 314.102 130.871 311.931 128.336Z" fill="url(#paint0_linear)"/>
<path d="M306.053 128.94C306.053 128.94 311.298 121.268 313.101 119.434C314.904 117.599 319.985 114.862 325.229 119.1C330.474 123.338 328.125 130.274 326.213 132.442L317.526 143.783C316.379 145.284 313.134 148.286 309.331 148.286C305.529 148.286 302.611 145.284 301.628 143.783L292.286 131.867C292.941 132.292 294.646 134.41 298.186 134.944C301.726 135.477 303.922 131.608 306.053 128.94Z" fill="#FE7679"/>
<defs>
<linearGradient id="paint0_linear" x1="294.151" y1="120.501" x2="310.491" y2="140.201" gradientUnits="userSpaceOnUse">
<stop stop-color="#FE7679"/>
<stop offset="1" stop-color="#FF0A10"/>
</linearGradient>
</defs>
</svg>
