<svg width="144" height="29" viewBox="0 0 144 29" fill="none" xmlns="http://www.w3.org/2000/svg">
<path d="M11.8782 28.872C11.7204 28.3894 11.539 27.9783 11.2471 27.625C10.6926 26.9526 9.9501 26.6892 9.10985 26.6866C6.61674 26.6774 4.12494 26.6831 1.63183 26.6857C1.41794 26.6857 1.20579 26.6804 0.996719 26.63C0.463733 26.4985 0.131932 26.1198 0.0468994 25.5483C0.0184092 25.3572 0.00394514 25.1661 0.00394514 24.9723C0.00482176 16.7277 0.00569804 8.48438 0 0.240195C0 0.0482143 0.0442691 0 0.238002 0C7.94921 0.00657466 15.66 0.00701272 23.3712 0.00350623C23.5399 0.00350623 23.607 0.0280523 23.607 0.224416C23.6013 8.45502 23.6013 16.6861 23.603 24.9158C23.603 25.117 23.5881 25.3155 23.5426 25.5101C23.3738 26.2382 22.8132 26.6813 22.0597 26.6822C19.6074 26.6831 17.1546 26.6774 14.7018 26.6857C13.9054 26.6883 13.1734 26.8882 12.6054 27.4957C12.299 27.8231 12.1079 28.2149 11.9615 28.6335C11.9409 28.6953 11.9194 28.7567 11.8782 28.872Z" fill="#D21517"/>
<path d="M17.2006 15.9304C17.1231 16.0185 17.0648 16.0904 17.0003 16.1566C16.9591 16.1978 16.928 16.2267 16.9881 16.2833C17.0091 16.3021 16.9968 16.3587 16.9968 16.399C16.9977 16.9315 16.9977 17.4654 16.9968 17.9984C16.9968 18.072 17.0258 18.1632 16.8943 18.1711C16.8158 18.1768 16.8434 18.253 16.8434 18.2991C16.8417 18.8128 16.8395 19.3269 16.8434 19.8393C16.8443 20.0058 16.928 20.1281 17.0367 20.2583C17.4448 20.7532 18.0312 21.0091 18.5165 21.3997C18.5997 21.4672 18.6725 21.5224 18.6536 21.6407C18.6383 21.7328 18.6887 21.7845 18.7588 21.8349C19.1257 22.101 19.4856 22.3753 19.8524 22.641C19.9589 22.7172 20.0098 22.7992 20.0036 22.9373C19.9918 23.1902 19.9958 23.4439 20.0036 23.6969C20.0067 23.8056 19.9817 23.8634 19.8621 23.8468C19.8226 23.8415 19.7827 23.8459 19.7424 23.8459C14.4634 23.8459 9.18438 23.8454 3.90668 23.8511C3.70374 23.8511 3.62791 23.8064 3.66999 23.6022C3.68489 23.5316 3.68621 23.4536 3.67262 23.383C3.58627 22.9127 3.7708 22.5936 4.18588 22.3679C4.40548 22.2474 4.59395 22.0698 4.80083 21.9234C4.92224 21.8375 5.04409 21.7608 5.00947 21.5794C4.99325 21.4878 5.08179 21.4588 5.13877 21.4185C5.5613 21.117 6.00005 20.8356 6.40549 20.5121C6.65182 20.3153 6.85476 20.0694 6.83547 19.6999C6.81268 19.248 6.83065 18.7939 6.82934 18.3407C6.82934 18.2592 6.8587 18.1597 6.71406 18.1627C6.63429 18.1645 6.65182 18.0904 6.65138 18.0409C6.65094 17.482 6.64787 16.921 6.65226 16.3613C6.65401 16.1754 6.66365 16.1754 6.46159 15.9208C6.37042 16.1864 6.42127 16.4432 6.46334 16.7019C6.48526 16.8373 6.55013 17.024 6.40505 17.0849C6.21438 17.1638 6.03731 17.3698 5.78265 17.2204C5.64107 17.1362 5.47802 17.1226 5.37107 16.9469C5.27552 16.7904 5.28034 16.6799 5.38554 16.5787C5.59111 16.3814 5.62135 16.143 5.60294 15.8818C5.58892 15.6823 5.65554 15.4899 5.6643 15.2901C5.6757 15.0604 5.96016 14.9026 6.17976 14.9867C6.34193 15.0503 6.39321 14.9981 6.46028 14.8631C6.57424 14.6348 6.76271 14.4757 7.00992 14.3985C7.11511 14.367 7.16377 14.3472 7.13221 14.2013C7.02 13.663 7.41316 13.177 7.96544 13.1419C8.15216 13.1301 8.19424 12.9872 8.2385 12.8504C8.25691 12.7956 8.24245 12.7308 8.24245 12.6711C8.24245 9.40529 8.24289 6.139 8.24157 2.87402C8.24157 2.74209 8.23018 2.6553 8.42172 2.63207C8.59222 2.61147 8.6961 2.41423 8.83329 2.29983C9.08313 2.09295 9.08006 2.08857 9.32069 2.29852C9.41624 2.38136 9.50961 2.46727 9.60516 2.55011C9.63978 2.58123 9.68055 2.63427 9.7143 2.6312C9.9843 2.60578 9.92863 2.79688 9.9203 2.9424C9.91154 3.07564 9.97115 3.09274 10.0842 3.09449C10.2013 3.09581 10.2622 3.07082 10.2433 2.94108C10.2354 2.88892 10.2473 2.8337 10.2416 2.7811C10.228 2.67065 10.2819 2.65136 10.3805 2.64873C10.729 2.63996 10.729 2.63646 10.729 2.28975C10.729 1.9711 10.7307 1.94919 11.0402 1.97768C11.3238 2.00397 11.5267 1.89834 11.706 1.70373C11.7774 1.62703 11.8563 1.58451 11.9339 1.6919C12.136 1.97154 12.4213 2.0088 12.7316 1.97066C12.885 1.95094 12.9394 2.01186 12.9175 2.15957C12.9118 2.19858 12.9166 2.23935 12.9166 2.27967C12.9166 2.63295 12.9166 2.64128 13.2725 2.65048C13.4825 2.65574 13.3992 2.80389 13.3974 2.89199C13.3957 3.03883 13.4224 3.11115 13.5916 3.09668C13.7003 3.08748 13.7305 3.05241 13.7222 2.95335C13.717 2.88717 13.7196 2.82011 13.7222 2.75349C13.7231 2.71667 13.7104 2.65574 13.7634 2.65706C14.0452 2.66407 14.1667 2.42475 14.3455 2.2788C14.5695 2.09514 14.5616 2.08462 14.7755 2.27354C14.8798 2.36602 14.9841 2.46026 15.0893 2.5523C15.1244 2.58298 15.1643 2.63733 15.198 2.63427C15.4535 2.60884 15.4009 2.78767 15.4009 2.93056C15.4018 6.1894 15.4018 9.44868 15.3983 12.708C15.3983 12.8509 15.4386 12.9635 15.5188 13.0757C15.5684 13.1441 15.6205 13.1638 15.7012 13.1664C16.2035 13.184 16.6041 13.6372 16.5191 14.1342C16.4849 14.335 16.5471 14.3867 16.7119 14.4424C16.9495 14.5221 17.1169 14.697 17.2182 14.9249C17.2655 15.0314 17.3058 15.0604 17.4268 15.0152C17.7516 14.8916 17.9782 15.1257 18.0159 15.4641C18.0589 15.8493 17.9374 16.2811 18.2754 16.6138C18.424 16.7615 18.2828 17.0998 18.0646 17.1612C17.9804 17.1853 17.9015 17.2129 17.8248 17.2506C17.5899 17.3641 17.4259 17.1634 17.241 17.0946C17.113 17.0455 17.1594 16.875 17.1844 16.7496C17.2375 16.4844 17.2791 16.2206 17.2006 15.9304Z" fill="#010202"/>
<path d="M11.8427 22.8842C14.4222 22.8842 17.0008 22.8868 19.5798 22.8803C19.7634 22.8794 19.852 22.9101 19.8213 23.1134C19.7941 23.2949 19.9015 23.5404 19.777 23.6464C19.6701 23.7367 19.4343 23.678 19.2559 23.678C14.2039 23.6789 9.15326 23.678 4.10216 23.6828C3.92684 23.6828 3.84882 23.6499 3.87073 23.4584C3.88739 23.3072 3.87731 23.152 3.87293 22.9991C3.87073 22.914 3.89747 22.8746 3.98601 22.8829C4.03247 22.8882 4.07893 22.8838 4.12583 22.8838C6.69872 22.8842 9.27073 22.8842 11.8427 22.8842Z" fill="#FFD703"/>
<path d="M9.9374 10.6465C9.9374 10.5685 9.9374 10.5172 9.9374 10.4664C9.9374 9.00069 9.93915 7.53542 9.93477 6.07014C9.93389 5.92331 9.98254 5.81373 10.0755 5.71292C10.5738 5.17336 11.1962 4.95859 11.9199 4.99102C12.4599 5.01513 12.9521 5.16109 13.3781 5.50341C13.6113 5.69057 13.7384 5.90271 13.734 6.23144C13.713 7.62922 13.7253 9.02831 13.7253 10.4274C13.7253 10.4923 13.7253 10.5576 13.7253 10.672C13.6034 10.5273 13.4719 10.4598 13.4728 10.2762C13.4732 10.1697 13.3707 10.0991 13.2633 10.0938C13.0976 10.0881 13.0336 10 13.006 9.85058C12.9854 9.74144 12.9425 9.63756 12.9135 9.53105C12.8947 9.45785 12.9087 9.39342 12.9556 9.32504C13.1524 9.04014 13.1423 8.87753 12.9188 8.59262C12.8925 8.55975 12.8798 8.52951 12.8714 8.48831C12.8118 8.18719 12.6426 8.05876 12.338 8.08199C12.2131 8.0912 12.0601 8.14642 12.1868 7.91762C12.2368 7.82733 12.2114 7.71206 12.1425 7.63448C11.9567 7.42409 12.0785 7.176 12.0461 6.94852C12.0404 6.90995 12.0707 6.88628 12.1083 6.8911C12.2723 6.9117 12.445 6.83544 12.5988 6.97876C12.7268 7.09886 12.9306 7.06467 13.0494 6.93844C13.1691 6.81264 13.1787 6.61628 13.0735 6.48172C12.9609 6.33927 12.7509 6.28755 12.6107 6.40545C12.4542 6.53695 12.2841 6.47646 12.1193 6.49268C12.0847 6.49618 12.0413 6.4861 12.0461 6.44709C12.0693 6.25555 11.9729 6.05305 12.1127 5.87247C12.2403 5.70635 12.221 5.5113 12.0803 5.38813C11.9453 5.27023 11.734 5.27154 11.606 5.39033C11.4662 5.52182 11.454 5.70547 11.5784 5.87685C11.7099 6.05787 11.6192 6.26037 11.6385 6.45235C11.6407 6.47821 11.6043 6.49224 11.5771 6.48829C11.4005 6.46112 11.2146 6.54834 11.045 6.40458C10.9004 6.28185 10.6992 6.3248 10.5826 6.46725C10.4739 6.6005 10.477 6.79862 10.5909 6.92441C10.715 7.06204 10.9161 7.09448 11.0568 6.96824C11.2243 6.8179 11.4119 6.91302 11.5881 6.88847C11.6429 6.88058 11.6486 6.93143 11.6437 6.97131C11.6161 7.20756 11.72 7.46003 11.5346 7.67831C11.4706 7.75414 11.4829 7.87292 11.5346 7.9654C11.6122 8.10478 11.5158 8.0912 11.4347 8.08418C11.0143 8.04912 11.0095 8.12845 10.7864 8.50715C10.5905 8.83939 10.5572 9.06907 10.747 9.40701C10.8333 9.56304 10.6904 9.81902 10.5931 10.0128C10.2236 10.0382 10.2056 10.4138 10.0036 10.6058C9.99525 10.6172 9.9821 10.6211 9.9374 10.6465Z" fill="#FFD803"/>
<path d="M5.45259 21.4308C5.8291 21.1542 6.1758 20.9 6.52119 20.6458C6.5396 20.6694 6.55275 20.6778 6.55319 20.6865C6.56415 21.0372 6.56415 21.0372 6.91436 21.0372C7.58059 21.0372 8.2477 21.0372 8.91393 21.0372C9.14799 21.0372 9.35137 20.8513 9.37547 20.6177C9.3781 20.5848 9.3895 20.5498 9.38555 20.5187C9.3632 20.3398 9.43771 20.2671 9.61874 20.2508C9.82956 20.2324 9.93388 20.0865 9.92512 19.8774C9.92029 19.7586 9.96281 19.7336 10.0724 19.7336C11.2523 19.7376 12.4318 19.7367 13.6113 19.7358C13.6994 19.7345 13.7551 19.7358 13.7603 19.8581C13.7713 20.1452 13.8673 20.2452 14.1601 20.2745C14.2701 20.285 14.2806 20.3262 14.292 20.4174C14.3109 20.5695 14.2758 20.7304 14.4073 20.8658C14.5326 20.9955 14.658 21.0499 14.8412 21.0468C15.5267 21.035 16.214 21.0359 16.9004 21.0464C17.0805 21.0499 17.1559 21.0056 17.1244 20.8202C17.116 20.7716 17.1235 20.7198 17.1235 20.6322C17.4983 20.9044 17.845 21.1551 18.2228 21.4299C13.9541 21.4308 9.72218 21.4308 5.45259 21.4308Z" fill="#FFD803"/>
<path d="M11.8471 19.5995C11.2471 19.5995 10.647 19.6 10.0478 19.5995C9.86112 19.5995 9.64941 19.4054 9.64635 19.216C9.63977 18.9096 9.64635 18.6032 9.6424 18.2969C9.64152 18.2048 9.66738 18.1654 9.766 18.1667C10.0982 18.1702 10.4322 18.1671 10.7658 18.1627C10.8499 18.1619 10.8933 18.1895 10.8806 18.2767C10.8644 18.3981 10.9284 18.4253 11.034 18.417C11.1204 18.4108 11.2076 18.4253 11.2931 18.4139C11.4899 18.3885 11.642 18.4468 11.752 18.6164C11.7822 18.6624 11.8344 18.7645 11.8927 18.655C12.0457 18.3696 12.3043 18.4139 12.5545 18.4161C12.6816 18.4161 12.8372 18.4573 12.8074 18.2329C12.7987 18.1684 12.86 18.168 12.9074 18.168C13.2475 18.1676 13.5868 18.1702 13.9269 18.1667C14.0141 18.1654 14.0439 18.1982 14.0417 18.2837C14.0378 18.5967 14.0439 18.9101 14.0352 19.2235C14.0295 19.4137 13.8164 19.5991 13.6249 19.5991C13.0327 19.6 12.4393 19.5995 11.8471 19.5995Z" fill="#D21517"/>
<path d="M8.44449 12.5721C8.44449 10.3604 8.44493 8.14864 8.44186 5.93604C8.44186 5.82997 8.47255 5.80148 8.57643 5.80324C8.92313 5.80981 9.2694 5.8085 9.6161 5.80367C9.7156 5.80236 9.75592 5.82603 9.75592 5.93561C9.75198 7.56831 9.75373 9.20058 9.75198 10.8329C9.75198 10.8438 9.7454 10.857 9.73751 10.8811C9.62837 10.8394 9.52099 10.8495 9.393 10.9442C9.393 10.8438 9.393 10.7741 9.393 10.7057C9.393 9.36627 9.393 8.02723 9.393 6.68819C9.393 6.43353 9.19313 6.30773 8.95995 6.41468C8.87535 6.45413 8.88631 6.53215 8.88631 6.60447C8.88631 6.97791 8.88631 7.35091 8.88631 7.72391C8.88631 9.01737 8.88543 10.3099 8.88631 11.6021C8.88719 11.7178 8.89201 11.8134 8.74342 11.8563C8.64393 11.8844 8.56634 12.011 8.6207 12.0974C8.77323 12.3363 8.54706 12.4292 8.44449 12.5721Z" fill="#FFD703"/>
<path d="M14.2819 10.9262C14.2052 10.8964 14.1412 10.8456 14.0978 10.8596C13.8804 10.9293 13.9208 10.7824 13.9208 10.6645C13.9208 9.11292 13.9229 7.56042 13.9168 6.0088C13.9159 5.84488 13.9514 5.79272 14.1206 5.80105C14.4397 5.81639 14.7601 5.80894 15.0792 5.80324C15.1791 5.80192 15.219 5.82384 15.219 5.93429C15.2146 8.12585 15.2155 10.317 15.2146 12.5085C15.2146 12.5212 15.209 12.5339 15.1914 12.6019C15.1187 12.4191 14.9109 12.352 15.038 12.1237C15.0954 12.0198 15.0459 11.8817 14.9175 11.8475C14.7728 11.8103 14.7785 11.7222 14.7785 11.6113C14.7803 9.97946 14.7794 8.34763 14.7794 6.7158C14.7794 6.41117 14.6913 6.34367 14.3919 6.40898C14.2574 6.43791 14.2824 6.53872 14.2824 6.62901C14.2815 7.56831 14.2815 8.50762 14.2815 9.44648C14.2819 9.93256 14.2819 10.4187 14.2819 10.9262Z" fill="#FFD703"/>
<path d="M4.10042 22.6839C4.41469 22.4485 4.69345 22.2408 4.9709 22.0326C4.98712 22.0475 5.00246 22.0558 5.00246 22.0637C5.02087 22.4161 5.02087 22.4161 5.38292 22.4161C9.68231 22.4161 13.9804 22.4161 18.2793 22.4161C18.662 22.4161 18.662 22.4161 18.6892 22.0159C18.985 22.2364 19.2686 22.4468 19.5881 22.6843C14.4121 22.6839 9.2795 22.6839 4.10042 22.6839Z" fill="#FED603"/>
<path d="M11.8309 22.2456C9.6915 22.2456 7.55166 22.2426 5.41227 22.2504C5.22993 22.2504 5.19355 22.2009 5.19925 22.0308C5.21108 21.6079 5.20319 21.6079 5.62573 21.6079C9.83132 21.6079 14.0365 21.6088 18.2416 21.6035C18.4231 21.6031 18.4967 21.6289 18.4871 21.8345C18.4687 22.2456 18.4818 22.2456 18.0689 22.2456C15.9887 22.2456 13.9102 22.2456 11.8309 22.2456Z" fill="#FDD503"/>
<path d="M16.7676 20.2372C16.1675 20.2372 15.5951 20.2372 14.9964 20.2372C15.2366 19.8651 15.1467 19.4597 15.1603 19.0669C15.1708 18.7496 15.1708 18.431 15.1761 18.1127C15.4982 18.0623 15.8235 18.1027 16.1465 18.0904C16.253 18.0864 16.3613 18.1 16.4656 18.0869C16.6234 18.0667 16.6514 18.1338 16.6484 18.2776C16.6387 18.7365 16.6475 19.1949 16.6435 19.6538C16.6427 19.848 16.6514 20.0391 16.7676 20.2372Z" fill="#FFD803"/>
<path d="M8.70223 20.2289C8.09298 20.2289 7.52318 20.2289 6.93146 20.2289C7.08662 19.9537 7.04016 19.6653 7.04279 19.3825C7.04717 18.9968 7.04717 18.6107 7.04191 18.2254C7.04104 18.1255 7.06514 18.086 7.17428 18.0873C7.5806 18.0939 7.9856 18.0957 8.39103 18.0869C8.5142 18.0851 8.53042 18.1355 8.5291 18.2403C8.52428 18.6729 8.53042 19.1051 8.52647 19.5377C8.52428 19.7735 8.53743 20.0019 8.70223 20.2289Z" fill="#FFD803"/>
<path d="M8.7671 13.6512C8.85344 13.6398 8.94198 13.628 9.02351 13.66C9.14536 13.7069 9.25713 13.6788 9.37197 13.6398C9.46489 13.6074 9.58192 13.4649 9.62706 13.6941C9.63627 13.7406 9.70727 13.7239 9.75286 13.7108C9.86287 13.6801 9.96237 13.6341 10.0413 13.5442C10.0982 13.4802 10.1622 13.4649 10.2052 13.5727C10.2661 13.727 10.4099 13.7573 10.5107 13.6306C10.6155 13.5 10.7084 13.4588 10.8263 13.6082C10.8578 13.6472 10.9104 13.6696 10.953 13.6481C11.1331 13.557 11.3005 13.6104 11.4697 13.677C11.4807 13.6819 11.5008 13.6858 11.5074 13.6797C11.6845 13.5324 11.8559 13.5591 12.0281 13.6911C12.0505 13.7082 12.0785 13.6915 12.0838 13.6578C12.1167 13.4364 12.1991 13.5491 12.2797 13.6271C12.3025 13.6503 12.3367 13.6836 12.3648 13.6582C12.4673 13.564 12.5567 13.5543 12.6431 13.6762C12.6501 13.6863 12.6887 13.688 12.6979 13.6797C12.8912 13.4864 13.1046 13.6582 13.2984 13.6713C13.425 13.6806 13.432 13.5114 13.5447 13.5754C13.6148 13.6148 13.6288 13.7888 13.7687 13.6665C13.8059 13.6345 13.8419 13.677 13.8752 13.6976C13.9181 13.7239 13.9777 13.7424 14.004 13.702C14.1298 13.5065 14.26 13.6069 14.3902 13.6876C14.4862 13.7472 14.5629 13.7643 14.6032 13.628C14.6374 13.5149 14.6957 13.5188 14.7768 13.5916C14.8736 13.6766 14.9661 13.7936 15.1116 13.6516C15.1458 13.6188 15.226 13.6218 15.2615 13.6608C15.372 13.7827 15.5127 13.7787 15.6503 13.7568C15.7976 13.734 15.8103 13.844 15.8134 13.9251C15.8182 14.0439 15.7205 13.9996 15.6525 13.9904C15.6324 13.9874 15.6056 13.9694 15.5964 13.9773C15.4426 14.0943 15.3067 14.0913 15.1813 13.9313C15.1651 13.9102 15.1038 13.9243 15.0814 13.969C15.0411 14.0496 15.02 14.0216 14.9587 13.9747C14.8482 13.8914 14.7316 13.9931 14.6194 14.015C14.5931 14.0202 14.5664 14.0956 14.5353 14.04C14.4459 13.8817 14.264 13.9549 14.2017 13.9812C14.0058 14.0636 13.855 13.9681 13.6876 13.9317C13.6674 13.9278 13.6363 13.9212 13.6293 13.9291C13.4921 14.1044 13.3295 13.9681 13.1791 13.9681C13.0928 13.9681 12.9964 13.9041 12.9302 14.015C12.9236 14.0268 12.8842 14.0373 12.8776 14.0303C12.729 13.8905 12.6036 14.04 12.4686 14.0623C12.4401 14.0676 12.4156 14.0715 12.3981 14.0514C12.2609 13.8879 12.1211 14.0505 11.983 14.0479C11.9606 14.0474 11.926 14.0834 11.9159 14.0772C11.8471 14.0264 11.7866 13.9646 11.7161 13.9164C11.6253 13.8524 11.6367 14.0921 11.5232 13.9843C11.4978 13.9602 11.4487 13.9545 11.4316 13.9808C11.3606 14.0904 11.3089 14.0702 11.2501 13.9707C11.23 13.9365 11.187 13.9133 11.1467 13.9396C11.1029 13.9676 11.0993 14.011 11.1134 14.0628C11.1292 14.1162 11.1883 14.1631 11.1471 14.2289C11.0752 14.2048 11.0489 14.1412 11.0222 14.0825C10.9968 14.0268 10.96 13.9847 10.9012 14.0132C10.7991 14.0623 10.7382 14.0172 10.6803 13.9422C10.6378 13.8879 10.5813 13.8611 10.5309 13.9251C10.4094 14.082 10.2959 13.997 10.1885 13.9146C10.111 13.8563 10.0627 13.8125 9.98209 13.9238C9.90407 14.0316 9.77214 14.0286 9.68185 13.9422C9.58411 13.848 9.53063 13.8708 9.46445 13.9655C9.44253 13.9953 9.40309 14.0115 9.37153 14.0347C9.24529 13.8467 8.95294 13.94 8.84336 13.7244C8.82671 13.6898 8.74518 13.7261 8.7671 13.6512Z" fill="#A25B42"/>
<path d="M11.9646 10.1614C11.7743 10.1412 11.603 10.1688 11.4986 10.3538C11.4018 10.5274 11.4303 10.6895 11.5657 10.828C11.6179 10.8819 11.596 10.9157 11.5666 10.9652C11.514 11.0573 11.4592 11.1502 11.4219 11.2484C11.2755 11.6389 11.3347 11.8313 11.677 12.0746C11.5718 12.1149 11.3667 12.0579 11.4658 12.2902C11.4868 12.3371 11.4105 12.32 11.3777 12.3262C11.0915 12.3867 11.056 12.4717 11.2168 12.7079C11.262 12.7754 11.3737 12.8469 11.3115 12.9271C11.2304 13.0314 11.1436 13.1568 10.9823 13.1568C10.6233 13.1577 10.2635 13.1577 9.88216 13.1577C10.0136 12.7614 10.1798 12.3946 10.3516 12.0303C10.6422 11.4154 10.988 10.835 11.4044 10.295C11.5192 10.1465 11.6376 10.0728 11.8217 10.1026C11.9185 10.1184 12.0202 10.075 12.1132 10.1285C12.0741 10.1828 12.0132 10.1416 11.9646 10.1614Z" fill="#FFD703"/>
<path d="M11.9646 10.1613C12.0053 10.1096 12.0623 10.1307 12.1145 10.1289C12.5953 10.6514 12.9416 11.2624 13.2541 11.8927C13.4373 12.2613 13.5942 12.6409 13.7406 13.0253C13.7814 13.1309 13.7704 13.166 13.6507 13.1642C13.3312 13.159 13.0117 13.159 12.6917 13.1638C12.519 13.1655 12.445 13.0244 12.3402 12.9302C12.2894 12.8841 12.3586 12.8346 12.3845 12.7934C12.6076 12.4406 12.5856 12.3867 12.1736 12.3121C12.3021 12.0812 12.1039 12.1118 11.94 12.0798C12.1679 11.9773 12.2937 11.8313 12.3056 11.6196C12.3161 11.4228 12.2486 11.2374 12.1456 11.0735C12.0763 10.9626 12.0452 10.8981 12.153 10.7785C12.3358 10.5769 12.2499 10.3375 11.9646 10.1613Z" fill="#FFD703"/>
<path d="M6.68117 15.8037C6.77979 15.8037 6.84422 15.8037 6.90734 15.8037C8.40548 15.8037 9.90275 15.8033 11.4009 15.8059C11.4794 15.8072 11.5828 15.7555 11.6332 15.8493C11.6683 15.9142 11.4614 16.1855 11.3799 16.1978C11.3465 16.2017 11.3128 16.1991 11.2795 16.1991C10.0018 16.1991 8.72326 16.2 7.44558 16.1991C7.14359 16.1973 6.88411 16.1035 6.68117 15.8037Z" fill="#088F39"/>
<path d="M16.9767 15.8108C16.8005 16.0935 16.5546 16.1938 16.2727 16.1956C14.9749 16.2013 13.6766 16.1987 12.3779 16.1973C12.3174 16.1973 12.214 16.2149 12.246 16.111C12.2771 16.008 12.2157 15.8607 12.3661 15.8059C12.3959 15.7963 12.4314 15.8037 12.4656 15.8037C13.9234 15.8033 15.3816 15.8033 16.8395 15.8037C16.8732 15.8042 16.907 15.8081 16.9767 15.8108Z" fill="#088F39"/>
<path d="M13.9207 4.21086C13.9207 3.8041 13.9256 3.39779 13.9177 2.99148C13.9151 2.86787 13.9488 2.83281 14.0724 2.83588C14.4117 2.84508 14.7527 2.84157 15.0919 2.83675C15.1945 2.83544 15.2313 2.86568 15.2309 2.97219C15.2269 3.81243 15.2269 4.6518 15.2309 5.49116C15.2309 5.59022 15.1932 5.61564 15.1016 5.61433C14.7483 5.61082 14.395 5.60775 14.0413 5.61564C13.9221 5.6174 13.9177 5.56042 13.919 5.46968C13.9221 5.0511 13.9207 4.6312 13.9207 4.21086Z" fill="#FED703"/>
<path d="M8.44275 4.21699C8.44275 3.81068 8.44669 3.40436 8.44099 2.99849C8.43924 2.8762 8.46203 2.82316 8.60098 2.82711C8.93322 2.83719 9.26677 2.83544 9.59989 2.82798C9.72349 2.82535 9.7568 2.86743 9.75636 2.98841C9.7511 3.81375 9.75198 4.63865 9.75636 5.46442C9.7568 5.57663 9.72524 5.61345 9.61084 5.61126C9.26458 5.60425 8.91831 5.60425 8.57249 5.61126C8.46291 5.61301 8.44012 5.57532 8.44099 5.47407C8.44581 5.05592 8.44275 4.63646 8.44275 4.21699Z" fill="#FED703"/>
<path d="M9.08354 15.5714C8.27661 15.5714 7.47055 15.5684 6.66362 15.5736C6.53827 15.5749 6.47515 15.5631 6.4769 15.4079C6.47953 15.2624 6.54002 15.2519 6.65573 15.2523C8.27529 15.255 9.89485 15.255 11.5144 15.2519C11.6275 15.2519 11.7007 15.2655 11.7187 15.4005C11.7388 15.5526 11.6748 15.5749 11.542 15.5741C10.7237 15.5675 9.90406 15.5714 9.08354 15.5714Z" fill="#FED603"/>
<path d="M14.75 15.2532C15.5017 15.2532 16.2543 15.2554 17.006 15.2514C17.1244 15.251 17.1866 15.2668 17.1857 15.4114C17.1848 15.5473 17.1379 15.5736 17.013 15.5732C15.5026 15.5692 13.9922 15.5692 12.4822 15.574C12.349 15.5745 12.3222 15.5342 12.3183 15.4075C12.313 15.2598 12.3796 15.251 12.4949 15.2514C13.2471 15.2554 13.9983 15.2532 14.75 15.2532Z" fill="#FED603"/>
<path d="M11.7161 3.33732C11.7161 3.5968 11.7104 3.85672 11.7191 4.11576C11.7213 4.2078 11.6573 4.36384 11.8274 4.36253C11.9821 4.36121 11.9234 4.21438 11.9256 4.12628C11.933 3.86724 11.9348 3.60688 11.9256 3.34784C11.9212 3.21722 11.9519 3.12036 12.0623 3.04146C12.1592 2.97221 12.2464 2.88805 12.3319 2.80477C12.3669 2.77058 12.4656 2.74078 12.395 2.67284C12.3428 2.62243 12.331 2.49752 12.1837 2.56414C12.0505 2.62506 12.0189 2.44536 11.9107 2.38312C12.0224 2.30554 12.1119 2.20604 12.2201 2.17799C12.3494 2.14336 12.5129 2.12101 12.6273 2.1907C12.708 2.24023 12.6396 2.38882 12.6567 2.49226C12.6917 2.71141 12.6181 2.8806 12.4283 2.99588C12.2376 3.11159 12.1728 3.27464 12.2004 3.49687C12.2223 3.66737 12.1921 3.84401 12.21 4.01539C12.2306 4.21832 12.1601 4.35858 12.0176 4.50454C11.8795 4.64568 11.8129 4.62332 11.6543 4.52295C11.2887 4.29108 11.3518 3.94876 11.3768 3.6231C11.3886 3.47013 11.5876 3.42761 11.6792 3.30971C11.6902 3.31803 11.7029 3.32768 11.7161 3.33732Z" fill="#FFD703"/>
<path d="M7.70682 16.4389C7.94 16.4389 8.17319 16.4441 8.40593 16.4362C8.51814 16.4327 8.57073 16.4503 8.56767 16.5844C8.55846 17.0034 8.56197 17.4233 8.56591 17.8428C8.56723 17.9418 8.5475 17.9839 8.43661 17.9826C7.95009 17.9769 7.464 17.9756 6.97747 17.9826C6.85913 17.9839 6.83415 17.9414 6.83502 17.8322C6.84072 17.4194 6.84203 17.0065 6.83458 16.5945C6.83327 16.4761 6.85738 16.4296 6.98756 16.4349C7.22687 16.4459 7.46707 16.4389 7.70682 16.4389Z" fill="#FFD703"/>
<path d="M15.9672 17.98C15.7279 17.98 15.4886 17.976 15.2497 17.9826C15.145 17.9857 15.113 17.9506 15.1138 17.8467C15.1187 17.4207 15.1209 16.9955 15.1134 16.5704C15.1117 16.4489 15.1599 16.4305 15.2651 16.4314C15.7446 16.4362 16.2228 16.4371 16.7018 16.431C16.8158 16.4292 16.8465 16.4652 16.8456 16.5765C16.839 16.9955 16.8368 17.4145 16.846 17.8336C16.8491 17.9655 16.8005 17.9874 16.6856 17.9839C16.4463 17.9751 16.2066 17.98 15.9672 17.98Z" fill="#FFD703"/>
<path d="M6.64304 15.0341C6.74078 14.8 6.91567 14.6865 7.11992 14.6133C7.22774 14.5738 7.32461 14.5752 7.42498 14.6738C7.58058 14.8263 7.77914 14.8864 8.00794 14.885C9.11292 14.8772 10.2192 14.882 11.326 14.8811C11.4342 14.8811 11.5429 14.8715 11.5609 15.0341C9.92423 15.0341 8.29503 15.0341 6.64304 15.0341Z" fill="#088F39"/>
<path d="M17.0288 15.045C16.0334 15.045 15.0683 15.045 14.1027 15.045C13.5565 15.045 13.0108 15.045 12.4651 15.045C12.4191 15.045 12.3709 15.0494 12.3253 15.0384C12.2666 15.0266 12.2749 14.9657 12.2705 14.9245C12.2648 14.8749 12.3117 14.8846 12.3415 14.882C12.3876 14.8789 12.4345 14.8811 12.4814 14.8811C13.5464 14.8811 14.6124 14.8776 15.6775 14.8837C15.8822 14.885 16.0689 14.8324 16.2066 14.6935C16.3437 14.5559 16.4717 14.5791 16.6177 14.6426C16.7939 14.7198 16.9302 14.8368 17.0288 15.045Z" fill="#088F39"/>
<path d="M10.7382 4.70308C10.7921 4.6816 10.8464 4.661 10.899 4.63821C11.0573 4.57115 11.1156 4.34761 10.9959 4.2205C10.8263 4.04167 10.6444 3.87511 10.4673 3.70373C10.4327 3.67086 10.3945 3.6393 10.3437 3.65552C10.2801 3.67656 10.2815 3.73354 10.2815 3.78789C10.2815 4.0145 10.2815 4.2411 10.2815 4.46815C10.2815 4.60227 10.338 4.63208 10.4568 4.57334C10.5497 4.52776 10.6483 4.49225 10.7526 4.44974C10.7211 4.5317 10.3148 4.75612 9.92468 4.91479C9.92468 4.38531 9.92336 3.86153 9.92599 3.33774C9.92687 3.24263 10.2105 3.18565 10.3056 3.2777C10.5913 3.5569 10.8841 3.83303 11.1335 4.14336C11.2265 4.25907 11.1804 4.47867 11.4027 4.58474C11.1519 4.64435 10.9494 4.69256 10.7465 4.74034C10.7448 4.72807 10.7417 4.71579 10.7382 4.70308Z" fill="#FFD703"/>
<path d="M15.8826 20.4433C16.1886 20.4433 16.4945 20.4512 16.7996 20.4393C16.9749 20.4314 16.9376 20.5467 16.928 20.6335C16.9184 20.7255 17.0073 20.875 16.7987 20.8732C16.1868 20.8671 15.5754 20.8693 14.9639 20.8732C14.8644 20.8732 14.8447 20.8347 14.8412 20.7439C14.8311 20.4424 14.8267 20.4424 15.1244 20.4424C15.3773 20.4433 15.6302 20.4433 15.8826 20.4433Z" fill="#FED603"/>
<path d="M7.80455 20.8724C7.50474 20.8724 7.2045 20.8619 6.90514 20.875C6.70132 20.8842 6.76356 20.7461 6.76137 20.648C6.76049 20.5559 6.70658 20.4349 6.89681 20.4384C7.49598 20.4485 8.09515 20.4485 8.6952 20.438C8.89813 20.4336 8.83545 20.5616 8.84028 20.6607C8.84554 20.7702 8.87447 20.8855 8.68292 20.8754C8.39145 20.8588 8.09778 20.8724 7.80455 20.8724Z" fill="#FED603"/>
<path d="M12.7198 4.68904C12.5905 4.66187 12.4612 4.63425 12.3082 4.60182C12.4296 4.48391 12.5217 4.37171 12.5006 4.20296C12.4958 4.16614 12.5554 4.11792 12.5909 4.07979C12.8254 3.83434 13.0695 3.59677 13.294 3.34255C13.4097 3.21018 13.5455 3.25445 13.6788 3.24963C13.7353 3.247 13.7345 3.29478 13.7345 3.3351C13.7345 3.85757 13.7345 4.38003 13.7345 4.93625C13.4548 4.74909 13.1717 4.64258 12.8999 4.51547C12.91 4.49487 12.9196 4.47471 12.9302 4.45411C13.0305 4.49487 13.1327 4.53125 13.2295 4.57903C13.3299 4.62768 13.3891 4.60094 13.3917 4.49312C13.3974 4.24679 13.4 4.00046 13.3908 3.75412C13.3864 3.64762 13.3097 3.60992 13.2269 3.68619C13.0318 3.86721 12.8355 4.04867 12.6584 4.24679C12.5453 4.37477 12.6251 4.56632 12.8026 4.65179C12.8022 4.72542 12.7614 4.70789 12.7198 4.68904Z" fill="#FFD703"/>
<path d="M9.09013 11.681C9.09013 10.9876 9.09013 10.3174 9.09013 9.64634C9.09013 8.70835 9.09013 7.76993 9.09013 6.83195C9.09013 6.77847 9.09013 6.72544 9.09189 6.67196C9.09189 6.64522 9.09846 6.61805 9.13221 6.61498C9.17736 6.61104 9.18481 6.64347 9.18612 6.67897C9.18744 6.71886 9.18744 6.75875 9.18744 6.79863C9.18744 8.3428 9.18744 9.88697 9.18656 11.4307C9.18612 11.5105 9.21637 11.6043 9.09013 11.681Z" fill="#FFD803"/>
<path d="M11.0542 16.5077C11.1256 16.5077 11.1712 16.5077 11.2181 16.5077C11.7507 16.5037 11.745 16.5037 11.7423 17.0336C11.7423 17.1809 11.6599 17.2545 11.5626 17.3176C11.3496 17.457 11.2812 17.6464 11.3097 17.8932C11.322 17.9992 11.3842 18.0356 11.4456 17.9918C11.546 17.919 11.6315 17.9326 11.6573 18.0268C11.6849 18.1298 11.5771 18.2162 11.4947 18.2346C11.368 18.2631 11.2304 18.2447 11.0972 18.242C11.0253 18.2403 11.045 18.1772 11.0441 18.136C11.0424 17.9699 11.0481 17.8033 11.0415 17.6376C11.0375 17.5478 11.0682 17.4895 11.1401 17.4373C11.2414 17.3641 11.3299 17.269 11.4342 17.2011C11.5556 17.1204 11.5824 17.0174 11.5784 16.8807C11.5758 16.7667 11.5407 16.7194 11.4285 16.7369C11.2536 16.7654 11.1375 16.6926 11.0542 16.5077Z" fill="#FED703"/>
<path d="M9.78353 17.9935C9.4846 17.9935 9.18524 17.9896 8.88631 17.9962C8.77717 17.9984 8.7329 17.9668 8.73465 17.8498C8.73991 17.4246 8.73597 16.9995 8.73684 16.5743C8.73684 16.5103 8.72063 16.4292 8.82582 16.4345C8.92225 16.4406 8.89288 16.5178 8.89288 16.5708C8.89551 16.9298 8.90297 17.2887 8.89025 17.6482C8.88456 17.8222 8.92313 17.8875 9.11642 17.8827C9.64108 17.8673 10.1662 17.8761 10.6908 17.8796C10.7522 17.8809 10.8679 17.8323 10.8644 17.9374C10.8609 18.0343 10.7461 17.9909 10.6808 17.9918C10.3818 17.9962 10.0833 17.9935 9.78353 17.9935Z" fill="#F5CF06"/>
<path d="M11.201 2.16921C11.3759 2.12538 11.4916 2.20646 11.5995 2.33182C11.7125 2.46331 11.8405 2.58078 11.9624 2.70395C12.0141 2.75654 12.0882 2.81002 11.979 2.86963C11.8997 2.91346 11.8524 3.09492 11.7143 2.93669C11.6003 2.80695 11.4745 2.68642 11.354 2.56237C11.3124 2.51942 11.2703 2.45981 11.2037 2.49531C11.1305 2.53432 11.1572 2.59744 11.1975 2.64653C11.2497 2.71052 11.2076 2.73814 11.1603 2.76838C11.1182 2.79599 11.0844 2.83851 11.0253 2.78065C10.9534 2.71096 10.8692 2.26607 10.938 2.19814C11.0095 2.12494 11.1147 2.18236 11.201 2.16921Z" fill="#FFD703"/>
<path d="M14.551 6.59265C14.551 8.3025 14.551 9.98123 14.551 11.6608C14.4594 11.6306 14.4831 11.5491 14.4831 11.4829C14.4822 9.91154 14.4822 8.34063 14.4831 6.76929C14.4827 6.71932 14.4625 6.66278 14.551 6.59265Z" fill="#FFD703"/>
<path d="M13.8655 17.9817C13.5596 17.9817 13.2536 17.983 12.9481 17.9791C12.8977 17.9791 12.8079 18.0146 12.8136 17.9177C12.818 17.8458 12.8977 17.8725 12.9451 17.8725C13.4894 17.8704 14.0356 17.8651 14.5804 17.8756C14.7347 17.8774 14.7882 17.8384 14.7825 17.6771C14.7702 17.3194 14.7768 16.9587 14.7807 16.5997C14.7811 16.537 14.7408 16.4349 14.8627 16.4362C14.9718 16.4371 14.9332 16.5309 14.9341 16.5874C14.9367 17.0007 14.9293 17.4132 14.9389 17.8243C14.9429 17.9659 14.8841 17.9856 14.7649 17.983C14.4647 17.976 14.1649 17.9817 13.8655 17.9817Z" fill="#FAD305"/>
<path d="M12.7101 17.5149C12.7101 17.7117 12.7084 17.9089 12.711 18.1057C12.7128 18.1877 12.6834 18.2271 12.5992 18.235C12.4257 18.2521 12.2661 18.2662 12.1364 18.0978C12.0194 17.9462 11.8664 17.8239 11.7323 17.6863C11.7007 17.6525 11.6332 17.6236 11.7003 17.5592C11.7524 17.5092 11.7945 17.5022 11.851 17.5583C11.9786 17.6841 12.1127 17.8042 12.242 17.9273C12.2876 17.9703 12.338 18.0067 12.402 17.9874C12.4853 17.9637 12.4511 17.8901 12.4489 17.8366C12.445 17.6687 12.5979 17.6157 12.7101 17.5149Z" fill="#FCD504"/>
<path d="M13.6047 16.8355C13.5723 16.8399 13.5644 16.8434 13.5591 16.8412C13.422 16.7777 13.2659 16.6418 13.1511 16.6698C13.0117 16.7049 12.9047 16.8776 12.7864 16.9933C12.6247 17.1502 12.4669 17.3128 12.3038 17.4693C12.2626 17.5096 12.2254 17.5995 12.1469 17.5197C12.075 17.4483 12.1605 17.415 12.1947 17.3795C12.4502 17.1095 12.7088 16.8412 12.9687 16.5752C13.0358 16.5059 13.5206 16.4454 13.5732 16.5112C13.6508 16.6058 13.5968 16.7242 13.6047 16.8355Z" fill="#FBD404"/>
<path d="M14.5449 16.8425C14.4932 16.8241 14.5046 16.7777 14.5094 16.743C14.5239 16.6181 14.4568 16.5958 14.3542 16.6063C14.3016 16.6111 14.2473 16.6023 14.1947 16.608C14.1329 16.6146 14.0496 16.5717 14.0132 16.6457C13.9672 16.7382 14.0544 16.7882 14.1079 16.843C14.2429 16.9802 14.3753 17.1204 14.5186 17.2506C14.6146 17.337 14.615 17.4443 14.5857 17.5421C14.5559 17.6425 14.4485 17.5877 14.3766 17.5947C14.2731 17.6034 14.1688 17.5964 14.0658 17.5964C14.0658 17.5679 14.0606 17.55 14.0663 17.546C14.3968 17.3028 14.3376 17.1752 14.0698 16.9442C14.0194 16.9004 13.969 16.8557 13.9295 16.8031C13.8682 16.7224 13.873 16.6203 13.9028 16.5357C13.9295 16.4612 14.0198 16.5007 14.0807 16.4971C14.1811 16.4915 14.281 16.4954 14.3805 16.4954C14.6194 16.4967 14.6716 16.6076 14.5449 16.8425Z" fill="#F9D204"/>
<path d="M9.14667 16.8798C9.06909 16.754 9.08706 16.6567 9.08794 16.5625C9.08838 16.4801 9.15719 16.4976 9.20672 16.4972C9.33252 16.495 9.45919 16.4923 9.58454 16.498C9.64591 16.5015 9.73927 16.4581 9.76075 16.5392C9.78573 16.63 9.80282 16.7373 9.727 16.8215C9.66081 16.8943 9.58717 16.9622 9.51661 17.0332C9.33208 17.216 9.33339 17.2962 9.52537 17.4676C9.56 17.4983 9.59857 17.5224 9.63539 17.55C9.62969 17.5653 9.62399 17.5807 9.61786 17.596C9.46971 17.596 9.32156 17.5964 9.17385 17.596C9.13265 17.5956 9.08575 17.5916 9.08838 17.5381C9.09188 17.4492 9.05638 17.3541 9.13878 17.2765C9.29219 17.1292 9.44034 16.9767 9.5898 16.8254C9.63495 16.7794 9.70377 16.7356 9.67834 16.6602C9.65029 16.5747 9.5657 16.6173 9.50521 16.6072C9.4982 16.6063 9.49118 16.6072 9.48505 16.6072C9.31893 16.6129 9.08662 16.5221 9.14667 16.8798Z" fill="#FAD304"/>
<path d="M10.4423 16.4967C10.5357 16.5134 10.6654 16.4503 10.7544 16.53C10.9161 16.6764 11.0647 16.8386 11.2094 17.0025C11.2563 17.0547 11.1769 17.0705 11.1484 17.0968C11.1024 17.1393 11.0608 17.1647 11.0016 17.1007C10.8898 16.9793 10.7627 16.8702 10.651 16.7474C10.5738 16.662 10.5037 16.6278 10.402 16.704C10.3656 16.7312 10.3196 16.7452 10.2784 16.7654C10.061 16.8728 10.0614 16.868 10.0663 16.6295C10.0689 16.5239 10.1057 16.4866 10.207 16.495C10.2793 16.5024 10.3533 16.4967 10.4423 16.4967Z" fill="#FCD404"/>
<path d="M11.7112 16.2206C11.9326 15.8712 12.0001 15.5118 11.883 15.1278C11.8721 15.0897 11.8502 15.0542 11.8427 15.0156C11.8344 14.9701 11.7393 14.9078 11.848 14.8784C11.912 14.8609 12.0036 14.8456 12.0356 14.9402C12.1745 15.3496 12.2004 15.7564 11.9904 16.1531C11.9286 16.2705 11.8291 16.2311 11.7112 16.2206Z" fill="#FCD504"/>
<path d="M12.086 11.5692C12.086 11.7428 11.997 11.8467 11.8453 11.8467C11.6954 11.8467 11.6012 11.7423 11.5986 11.5727C11.5955 11.3408 11.7393 11.0397 11.848 11.0498C11.9453 11.0594 12.086 11.3654 12.086 11.5692Z" fill="#D11517"/>
<path d="M9.31804 19.6451C9.01166 19.6736 9.01166 19.6736 9.01166 19.4229C9.01166 19.0792 9.01079 18.7347 9.01166 18.3902C9.01166 18.3227 8.98449 18.2385 9.1059 18.2363C9.2295 18.2333 9.20189 18.3188 9.20189 18.3849C9.20364 18.669 9.20452 18.9556 9.20189 19.2401C9.20014 19.379 9.19838 19.518 9.31804 19.6451Z" fill="#F7D003"/>
<path d="M14.3814 19.6394C14.5155 19.4711 14.4818 19.2944 14.484 19.1235C14.4857 18.8697 14.4849 18.6172 14.484 18.3643C14.484 18.2946 14.4774 18.2337 14.5813 18.235C14.6834 18.2359 14.6804 18.296 14.6799 18.3661C14.6795 18.7194 14.6799 19.0713 14.6799 19.4242C14.6799 19.681 14.6799 19.681 14.3814 19.6394Z" fill="#FAD302"/>
<path d="M14.9293 19.0056C14.9293 19.2454 14.9254 19.4847 14.9302 19.7244C14.9341 19.8901 14.8776 20.0404 14.7492 20.1255C14.601 20.2254 14.5852 20.349 14.5957 20.4998C14.5993 20.5528 14.5957 20.6067 14.594 20.6598C14.5931 20.6874 14.5817 20.7106 14.5502 20.7159C14.5068 20.7211 14.4866 20.6935 14.4906 20.6571C14.5142 20.4674 14.4025 20.2535 14.6409 20.1075C14.7912 20.0146 14.8491 19.845 14.8456 19.6556C14.8381 19.2037 14.8416 18.7505 14.8456 18.2982C14.8456 18.2425 14.8 18.1355 14.8925 18.1386C14.9731 18.1412 14.9306 18.2486 14.9315 18.3069C14.9372 18.5401 14.9332 18.7733 14.9332 19.006C14.9332 19.0056 14.9306 19.0056 14.9293 19.0056Z" fill="#F6D002"/>
<path d="M8.84292 18.9951C8.84292 19.2068 8.85169 19.4198 8.84117 19.6319C8.82978 19.8612 8.92445 20.0273 9.09978 20.1605C9.18086 20.2232 9.24266 20.6085 9.18744 20.6913C9.16245 20.7273 9.12958 20.7255 9.11161 20.6931C9.09627 20.6655 9.09232 20.6282 9.09715 20.5967C9.1287 20.3784 9.07523 20.2044 8.88719 20.0646C8.7934 19.9949 8.75921 19.87 8.75921 19.7433C8.75877 19.2515 8.75307 18.7593 8.75132 18.2675C8.75132 18.2206 8.72151 18.136 8.79164 18.136C8.88544 18.1351 8.83986 18.228 8.84073 18.2763C8.84687 18.5156 8.84292 18.7544 8.84292 18.9951Z" fill="#F2CC05"/>
<path d="M11.5749 3.1221C11.5447 3.1427 11.5219 3.15629 11.5017 3.17382C11.3466 3.30969 11.1861 3.44119 11.038 3.58495C10.9398 3.68007 10.9069 3.58802 10.8495 3.54244C10.7763 3.48283 10.771 3.43637 10.8495 3.37106C11.0038 3.24351 11.1489 3.10588 11.2983 2.97307C11.3325 2.94283 11.3654 2.89987 11.4145 2.95247C11.4631 3.00507 11.5122 3.05679 11.5749 3.1221Z" fill="#FDD503"/>
<path d="M11.8348 9.56703C11.5688 9.56703 11.3023 9.56878 11.0362 9.56571C10.9841 9.56527 10.8999 9.59815 10.8916 9.50873C10.8828 9.40748 10.974 9.44298 11.0235 9.44298C11.5688 9.43991 12.1149 9.44035 12.6606 9.44255C12.7075 9.44255 12.7829 9.41581 12.7868 9.49602C12.7908 9.59245 12.7075 9.56571 12.6536 9.56615C12.3805 9.56834 12.1079 9.56703 11.8348 9.56703Z" fill="#D9B811"/>
<path d="M12.6203 16.4967C12.5401 16.6843 12.427 16.7627 12.2503 16.7312C12.1101 16.7071 12.0768 16.7803 12.0899 16.903C12.1022 17.0157 12.093 17.1182 11.9234 17.1314C11.9234 16.9525 11.9251 16.7759 11.9225 16.5997C11.9212 16.5212 11.9505 16.4941 12.0277 16.4954C12.2188 16.4989 12.4099 16.4967 12.6203 16.4967Z" fill="#FAD305"/>
<path d="M14.3394 11.8765C14.4445 12.0128 14.5419 12.1368 14.6383 12.2609C14.5107 12.3884 14.4038 12.4502 14.2609 12.2635C14.1745 12.1522 14.0694 12.221 14.0246 12.3463C14.0067 12.3963 14.0032 12.4634 13.93 12.4476C13.8568 12.4318 13.766 12.4507 13.7169 12.3691C13.6933 12.3288 13.6587 12.2793 13.7297 12.2587C13.8388 12.2262 13.9032 12.1101 14.061 12.1504C14.2127 12.1885 14.299 12.0421 14.3394 11.8765Z" fill="#FCD404"/>
<path d="M11.8423 7.40397C11.7835 7.24311 11.7963 7.07786 11.8068 6.91657C11.8164 6.76009 11.7599 6.7259 11.6157 6.73248C11.4767 6.73949 11.3325 6.75921 11.1467 6.70267C11.3413 6.62772 11.4991 6.6584 11.6494 6.66103C11.7717 6.66322 11.812 6.62903 11.8041 6.50543C11.7941 6.33843 11.802 6.16968 11.8256 6.00137C11.9168 6.08684 11.8813 6.19335 11.8822 6.2889C11.887 6.65665 11.8839 6.65577 12.2604 6.65884C12.3297 6.65928 12.4051 6.63473 12.4897 6.6996C12.3349 6.76886 12.1864 6.73511 12.0457 6.73204C11.9115 6.72985 11.8773 6.77324 11.88 6.90298C11.8857 7.06954 11.9093 7.2396 11.8423 7.40397Z" fill="#F6CF06"/>
<path d="M9.33997 11.8901C9.39388 12.0807 9.48373 12.1925 9.70683 12.1417C9.81641 12.1162 9.8861 12.253 9.98867 12.2942C10.0137 12.3043 9.97245 12.406 9.92248 12.4108C9.8414 12.42 9.74891 12.5186 9.67484 12.3968C9.53765 12.1728 9.53019 12.1649 9.33208 12.3564C9.21198 12.4713 9.17341 12.3315 9.1024 12.3052C8.99195 12.2635 9.08575 12.2096 9.11073 12.1732C9.17692 12.0764 9.23565 11.9703 9.33997 11.8901Z" fill="#FCD404"/>
<path d="M10.4244 17.5881C10.1259 17.6762 9.98736 17.3974 9.78618 17.2427C9.76075 17.2225 9.74059 17.1927 9.77522 17.1603C9.80634 17.1314 9.83921 17.1073 9.8791 17.1393C9.91548 17.1686 9.9523 17.1989 9.98122 17.2339C10.1693 17.4689 10.3858 17.5714 10.6702 17.3913C10.7093 17.3659 10.7772 17.3242 10.7882 17.4176C10.7965 17.4816 10.8285 17.5767 10.7132 17.5876C10.626 17.5951 10.5401 17.5881 10.4244 17.5881Z" fill="#F2CC07"/>
<path d="M12.9047 17.3404C13.2458 17.6082 13.5122 17.475 13.7446 17.1853C13.7827 17.1375 13.8348 17.0963 13.8918 17.1647C13.9523 17.2361 13.8673 17.2515 13.8383 17.2848C13.638 17.5201 13.4005 17.6411 13.0731 17.6056C12.8903 17.5863 12.8394 17.5403 12.9047 17.3404Z" fill="#F5CF04"/>
<path d="M10.6321 2.84684C10.6808 2.84684 10.7206 2.84246 10.7596 2.84816C10.8478 2.86043 10.8968 2.93275 10.9293 2.99937C10.9617 3.06775 10.8679 3.08265 10.8359 3.12648C10.8241 3.14226 10.8083 3.15936 10.7912 3.16462C10.7127 3.19135 10.6939 3.36493 10.5576 3.25359C10.4331 3.15234 10.4454 3.01778 10.4699 2.89155C10.4853 2.80564 10.583 2.86218 10.6321 2.84684Z" fill="#FAD305"/>
<path d="M13.0253 2.84726C13.1546 2.81964 13.2168 2.8512 13.2124 3.00329C13.2089 3.13917 13.1634 3.23034 13.0454 3.28294C13.0117 3.29784 12.7215 3.02565 12.7373 2.99847C12.8017 2.8924 12.885 2.81307 13.0253 2.84726Z" fill="#FDD603"/>
<path d="M13.2427 11.1726C13.2444 11.0801 13.29 11.0095 13.3847 11.027C13.5394 11.0555 13.6148 11.1756 13.6288 11.322C13.6372 11.4018 13.5973 11.4803 13.4952 11.482C13.3746 11.4838 13.2387 11.3133 13.2427 11.1726Z" fill="#408AC8"/>
<path d="M8.8517 13.1528C8.70136 13.1528 8.58433 13.1528 8.42873 13.1528C8.58433 12.921 8.72722 12.7119 8.86791 12.5006C8.8929 12.4642 8.91481 12.4336 8.95908 12.4721C9.00204 12.5094 8.97881 12.5431 8.94681 12.569C8.75264 12.725 8.72108 12.9161 8.8517 13.1528Z" fill="#F4CE05"/>
<path d="M17.5899 15.1997C17.7165 15.2103 17.7967 15.2764 17.7976 15.3987C17.7985 15.5223 17.7161 15.5995 17.5947 15.5982C17.4838 15.5964 17.408 15.5285 17.4023 15.4097C17.3966 15.2821 17.4654 15.2142 17.5899 15.1997Z" fill="#FBD404"/>
<path d="M10.4366 11.1756C10.4392 11.2904 10.2924 11.4772 10.1872 11.4789C10.0908 11.4807 10.047 11.4197 10.0439 11.3251C10.0399 11.1984 10.1732 11.0327 10.2898 11.0235C10.3682 11.0174 10.4344 11.0862 10.4366 11.1756Z" fill="#418BC9"/>
<path d="M6.07937 15.6039C5.96892 15.5859 5.89134 15.5272 5.88739 15.411C5.88476 15.2887 5.94788 15.2037 6.0785 15.2041C6.20736 15.2046 6.27705 15.2909 6.27442 15.4101C6.27223 15.5215 6.19377 15.5868 6.07937 15.6039Z" fill="#FAD304"/>
<path d="M14.9232 12.686C15.0266 12.8355 15.1305 12.9841 15.2493 13.155C15.0972 13.155 14.981 13.155 14.8509 13.155C14.8815 13.0152 14.9245 12.8767 14.8776 12.7356C14.864 12.6926 14.8842 12.6808 14.9232 12.686Z" fill="#F3CD06"/>
<path d="M10.853 6.8714C10.7597 6.85913 10.6856 6.81004 10.6865 6.6987C10.6865 6.59877 10.7496 6.53565 10.8464 6.53039C10.9565 6.52426 11.0209 6.59614 11.0231 6.7009C11.0253 6.79864 10.9626 6.85781 10.853 6.8714Z" fill="#F8D205"/>
<path d="M12.7899 6.52557C12.8933 6.54091 12.9635 6.59351 12.9626 6.70353C12.9626 6.80609 12.8942 6.86395 12.8 6.86833C12.7036 6.87315 12.6347 6.81749 12.6277 6.7158C12.6207 6.60666 12.6834 6.54617 12.7899 6.52557Z" fill="#F9D205"/>
<path d="M11.8541 7.64502C11.951 7.66343 12.011 7.71603 12.0088 7.8199C12.0071 7.93781 11.9348 7.98866 11.8265 7.97989C11.7252 7.97156 11.6722 7.90669 11.681 7.80237C11.6902 7.69805 11.7559 7.65379 11.8541 7.64502Z" fill="#FCD403"/>
<path d="M12.0102 5.62048C12.0102 5.74584 11.9615 5.80808 11.8567 5.81421C11.7568 5.81947 11.6884 5.77301 11.681 5.66826C11.6735 5.5578 11.7283 5.49074 11.8418 5.48548C11.9488 5.48154 11.9917 5.55123 12.0102 5.62048Z" fill="#FCD504"/>
<path d="M11.2764 10.114C11.1888 10.2503 11.1283 10.3433 11.066 10.4388C10.9933 10.3976 10.9714 10.3056 10.8881 10.2806C10.8535 10.2696 10.796 10.2604 10.8096 10.21C10.8223 10.1596 10.8627 10.1162 10.924 10.1153C11.0279 10.1123 11.1327 10.114 11.2764 10.114Z" fill="#FAD303"/>
<path d="M9.14843 19.8419C9.23258 19.8419 9.31717 19.8371 9.40045 19.8432C9.45261 19.8471 9.53151 19.809 9.5451 19.9002C9.55342 19.9589 9.57446 20.0365 9.52581 20.0711C9.46795 20.1114 9.38424 20.1119 9.32112 20.0624C9.25318 20.0106 9.19006 19.9506 9.12476 19.8945C9.13308 19.8765 9.14054 19.859 9.14843 19.8419Z" fill="#F7D106"/>
<path d="M14.5309 19.8423C14.4393 19.955 14.3968 20.1027 14.2315 20.0935C14.1382 20.0887 14.1246 20.047 14.1276 19.9699C14.1298 19.9015 14.1211 19.8362 14.2236 19.8415C14.3258 19.8458 14.4283 19.8423 14.5309 19.8423Z" fill="#F9D203"/>
<path d="M12.6216 10.4515C12.5484 10.3419 12.4835 10.2446 12.4191 10.1487C12.4621 10.0952 12.5125 10.1114 12.5528 10.1162C12.6518 10.1267 12.7882 10.0584 12.839 10.1837C12.885 10.2972 12.7093 10.2657 12.6843 10.3507C12.6746 10.384 12.647 10.4121 12.6216 10.4515Z" fill="#FAD304"/>
<path d="M11.4833 13.1441C11.7178 13.0086 11.9527 13.0121 12.246 13.1441C11.9536 13.1441 11.7191 13.1441 11.4833 13.1441Z" fill="#F8D204"/>
<path d="M12.004 18.3328C11.9676 18.4099 11.9072 18.4836 11.8502 18.4765C11.7524 18.4656 11.6757 18.374 11.6538 18.2846C11.638 18.2219 11.7551 18.1298 11.7831 18.1439C11.8673 18.1837 11.9317 18.2661 12.004 18.3328Z" fill="#FDD502"/>
<path d="M12.9679 10.9801C12.9126 10.892 12.8776 10.8372 12.8403 10.7772C12.9622 10.7417 13.0748 10.7158 13.1305 10.5857C13.1629 10.5081 13.1804 10.5147 13.3461 10.7189C13.1585 10.7049 13.0349 10.779 12.9679 10.9801Z" fill="#F0CB04"/>
<path d="M13.8835 11.3023C13.9905 11.4299 14.0694 11.5228 14.1693 11.6424C14.0338 11.6398 13.9221 11.6473 13.8537 11.7468C13.8287 11.784 13.7972 11.7849 13.7713 11.7621C13.7235 11.7218 13.784 11.7108 13.7998 11.6942C13.8958 11.5969 13.8892 11.4702 13.8835 11.3023Z" fill="#F2CC04"/>
<path d="M9.91634 11.7594C9.77082 11.7546 9.69894 11.5718 9.49556 11.6841C9.59769 11.5201 9.67527 11.4189 9.78616 11.3286C9.78353 11.4894 9.7809 11.642 9.91634 11.7594Z" fill="#EDC807"/>
<path d="M11.3523 9.21065C11.1406 9.0774 11.1432 8.89068 11.3523 8.7421C11.3523 8.89682 11.3523 9.04497 11.3523 9.21065Z" fill="#F5CF04"/>
<path d="M12.5401 3.2023C12.6277 3.28164 12.7228 3.3487 12.7632 3.45521C12.7816 3.50298 12.7027 3.57618 12.6724 3.56215C12.5699 3.51569 12.4875 3.42978 12.4436 3.32722C12.4217 3.27462 12.5054 3.25095 12.5401 3.2023Z" fill="#FCD403"/>
<path d="M10.3454 10.7114C10.3761 10.6194 10.4423 10.576 10.5111 10.5186C10.5563 10.6667 10.6391 10.7684 10.8092 10.7711C10.8022 10.8556 10.7399 10.9008 10.7035 10.9841C10.6461 10.7947 10.5357 10.6983 10.3454 10.7114Z" fill="#F0CB06"/>
<path d="M12.3262 9.21944C12.3262 9.04587 12.3262 8.89728 12.3262 8.74606C12.5313 8.87361 12.5392 9.05157 12.3262 9.21944Z" fill="#FAD303"/>
<path d="M12.9574 4.2332C13.0424 4.16001 13.1143 4.09689 13.1936 4.02939C13.1936 4.13151 13.1936 4.23276 13.1936 4.33796C13.1112 4.34103 13.0507 4.29413 12.9574 4.2332Z" fill="#F1CB02"/>
<path d="M8.76707 13.6512C8.7925 13.6749 8.81792 13.6981 8.84378 13.7222C8.65355 13.7301 8.49488 13.8668 8.29501 13.8445C8.43089 13.727 8.61191 13.7182 8.76707 13.6512Z" fill="#92523C"/>
<path d="M5.81727 16.516C5.85321 16.6891 5.82866 16.8167 5.75327 16.9552C5.70155 16.7281 5.7055 16.697 5.81727 16.516Z" fill="#D8B70E"/>
<path d="M10.4835 4.34627C10.4835 4.23275 10.4835 4.13807 10.4835 3.99738C10.5668 4.10038 10.6571 4.16437 10.6685 4.24152C10.6781 4.30288 10.562 4.31384 10.4835 4.34627Z" fill="#F8D105"/>
<path d="M17.4956 16.1824C17.3874 16.0422 17.3948 15.9151 17.4066 15.7827C17.5245 15.8774 17.5373 15.9295 17.4956 16.1824Z" fill="#DDBA09"/>
<path d="M17.7047 16.5787C17.61 16.4665 17.5973 16.3341 17.6188 16.1754C17.7682 16.2933 17.7152 16.441 17.7047 16.5787Z" fill="#D9B70D"/>
<path d="M5.84311 16.1965C5.79445 16.0216 5.81593 15.8971 5.91323 15.7367C5.9369 15.9151 5.94129 16.0431 5.84311 16.1965Z" fill="#DBB90D"/>
<path d="M12.3021 8.26259C12.5673 8.23979 12.5883 8.2525 12.6479 8.4458C12.5252 8.41468 12.4362 8.35112 12.3021 8.26259Z" fill="#EAC609"/>
<path d="M6.2731 16.523C6.28406 16.6821 6.28757 16.8114 6.20034 16.9346C6.15651 16.7229 6.16002 16.7005 6.2731 16.523Z" fill="#FFD703"/>
<path d="M17.8493 16.5068C17.9554 16.6554 17.9725 16.7807 17.9181 16.9398C17.8187 16.8031 17.834 16.6725 17.8493 16.5068Z" fill="#DCB90E"/>
<path d="M12.0102 8.50279C11.8905 8.52821 11.7945 8.52821 11.6968 8.50717C11.7906 8.36385 11.8502 8.35946 12.0102 8.50279Z" fill="#CB1617"/>
<path d="M14.3411 13.1519C14.1728 13.1633 14.0211 13.1971 14.0023 12.956C14.1171 13.0222 14.2184 13.0805 14.3411 13.1519Z" fill="#E9C508"/>
<path d="M12.0237 9.27466C11.8883 9.40572 11.7906 9.39432 11.6507 9.2808C11.7919 9.24486 11.8883 9.2488 12.0237 9.27466Z" fill="#CC1617"/>
<path d="M10.8771 8.76273C10.8771 8.90737 10.8771 9.01519 10.8771 9.12433C10.7277 9.03536 10.7228 8.96742 10.8771 8.76273Z" fill="#F3CD05"/>
<path d="M10.8818 10.5119C10.8659 10.5669 10.8387 10.6109 10.7731 10.6043C10.7216 10.5986 10.6895 10.559 10.6886 10.5102C10.6886 10.4591 10.726 10.4204 10.7758 10.4169C10.8373 10.4112 10.869 10.4534 10.8818 10.5119Z" fill="#DCB90C"/>
<path d="M11.0069 8.46859C11.0643 8.26872 11.1646 8.22182 11.3303 8.25995C11.2562 8.37172 11.1427 8.39626 11.0069 8.46859Z" fill="#EFC906"/>
<path d="M12.8057 9.14404C12.8057 9.02613 12.8057 8.92094 12.8057 8.81049C12.9543 8.94198 12.9552 8.98844 12.8057 9.14404Z" fill="#ECC708"/>
<path d="M17.834 16.1632C17.7345 16.0558 17.7555 15.9278 17.7586 15.759C17.8857 15.9015 17.8349 16.0369 17.834 16.1632Z" fill="#F1CB05"/>
<path d="M17.4746 16.9591C17.3755 16.8118 17.3843 16.6812 17.4106 16.5265C17.5197 16.6641 17.4904 16.7965 17.4746 16.9591Z" fill="#F2CD05"/>
<path d="M6.25033 15.7468C6.25822 15.926 6.27049 16.054 6.17494 16.1965C6.16004 16.0347 6.13154 15.9037 6.25033 15.7468Z" fill="#F1CB06"/>
<path d="M14.9232 12.6861C14.9078 12.7023 14.8929 12.7185 14.8785 12.7356C14.8482 12.701 14.8162 12.6685 14.789 12.6321C14.7544 12.5822 14.6282 12.5432 14.7224 12.473C14.8018 12.4156 14.8188 12.5432 14.8636 12.5861C14.8907 12.612 14.9039 12.6523 14.9232 12.6861Z" fill="#E2BF0A"/>
<path d="M14.1647 11.8965C14.1607 11.9599 14.1203 11.9845 14.0714 11.9854C14.0195 11.9863 13.9821 11.9515 13.9799 11.8987C13.979 11.8499 14.0019 11.8068 14.0609 11.8068C14.1233 11.8054 14.1559 11.8406 14.1647 11.8965Z" fill="#E3C00B"/>
<path d="M11.8391 10.4493C11.9033 10.4568 11.9372 10.4867 11.9425 10.5369C11.9473 10.5884 11.9169 10.628 11.8655 10.6319C11.8039 10.6376 11.7678 10.5994 11.7652 10.5395C11.7612 10.4823 11.8091 10.4678 11.8391 10.4493Z" fill="#DFBD0B"/>
<path d="M9.60985 11.9836C9.55838 11.974 9.51966 11.952 9.52494 11.8921C9.53066 11.8385 9.56542 11.8085 9.61777 11.8068C9.6776 11.805 9.70136 11.8481 9.70092 11.8983C9.70004 11.9515 9.66617 11.9819 9.60985 11.9836Z" fill="#F6D003"/>
<path d="M6.04256 16.1548C6.04738 16.3183 6.06667 16.4419 5.97506 16.548C5.95358 16.4239 5.92948 16.2981 6.04256 16.1548Z" fill="#F9D202"/>
<path d="M11.721 1.96497C11.721 2.04108 11.721 2.09959 11.721 2.16074C11.6427 2.16162 11.5784 2.11367 11.574 2.05955C11.5696 2.0028 11.6466 1.98124 11.721 1.96497Z" fill="#EFC906"/>
<path d="M12.8889 10.4064C12.9438 10.4143 12.9724 10.4442 12.9724 10.497C12.9724 10.552 12.9408 10.5797 12.8858 10.5758C12.8347 10.5714 12.7991 10.548 12.8031 10.4908C12.807 10.4372 12.8365 10.4095 12.8889 10.4064Z" fill="#F5CE05"/>
<path d="M12.7198 4.68907C12.7465 4.6768 12.7737 4.66409 12.8013 4.65225C12.9043 4.67066 12.9902 4.72896 13.0823 4.77498C13.0853 4.81004 13.0783 4.8324 13.0354 4.81136C12.9306 4.7706 12.825 4.72983 12.7198 4.68907Z" fill="#D9B70D"/>
<path d="M11.4839 12.5737C11.4782 12.6357 11.4386 12.6533 11.3871 12.652C11.3396 12.6503 11.3163 12.6212 11.3176 12.5741C11.3194 12.5214 11.3418 12.4835 11.4012 12.4866C11.4566 12.4888 11.483 12.5222 11.4839 12.5737Z" fill="#F4CE06"/>
<path d="M10.4045 17.0047C10.4533 17.0329 10.5074 17.0606 10.51 17.1279C10.5109 17.1464 10.4748 17.1829 10.4599 17.1807C10.3965 17.171 10.3552 17.1222 10.3358 17.0663C10.3283 17.0395 10.3649 17.0131 10.4045 17.0047Z" fill="#E6C207"/>
<path d="M11.9235 12.2396C11.9222 12.3078 11.891 12.3298 11.8465 12.332C11.7907 12.336 11.7577 12.31 11.7621 12.2502C11.7652 12.2049 11.7907 12.1732 11.8351 12.1715C11.8919 12.1684 11.9121 12.211 11.9235 12.2396Z" fill="#F3CD04"/>
<path d="M11.9747 1.961C12.1463 2.06087 12.1463 2.06087 11.9765 2.15941C11.9444 2.09738 11.9554 2.03579 11.9747 1.961Z" fill="#EEC906"/>
<path d="M12.3583 12.5693C12.3447 12.623 12.313 12.6525 12.258 12.6472C12.2092 12.6424 12.1912 12.608 12.1947 12.5636C12.1973 12.5201 12.2167 12.4862 12.2664 12.4862C12.3227 12.4857 12.3495 12.5201 12.3583 12.5693Z" fill="#F2CC02"/>
<path d="M13.3248 17.0711C13.3072 17.1274 13.2694 17.1692 13.221 17.1877C13.1942 17.1978 13.1559 17.1644 13.1585 17.1274C13.1647 17.0685 13.2109 17.0328 13.2593 17.0135C13.2883 17.0016 13.3121 17.0403 13.3248 17.0711Z" fill="#F2CC01"/>
<path d="M11.6871 8.21174C11.8011 8.14205 11.9133 8.1517 12.0233 8.21174C11.9107 8.23191 11.8002 8.17624 11.6871 8.21174Z" fill="#F1CC06"/>
<path d="M13.0358 4.81103C13.0508 4.79916 13.0666 4.7864 13.082 4.77408C13.1533 4.80179 13.2241 4.82951 13.2954 4.91134C13.1739 4.91354 13.1075 4.85459 13.0358 4.81103Z" fill="#CEAD10"/>
<path d="M14.0251 11.0135C14.1108 10.9875 14.1606 11.0025 14.1698 11.0803C14.172 11.1015 14.1518 11.145 14.1496 11.1446C14.0871 11.1309 14.0607 11.0795 14.0251 11.0135Z" fill="#DFBC0A"/>
<path d="M14.8366 11.9655C14.8854 11.9787 14.9184 12.0108 14.9144 12.0622C14.9127 12.0829 14.8753 12.1194 14.8682 12.1168C14.8251 12.0957 14.8014 12.0552 14.7895 12.0099C14.7794 11.9694 14.8115 11.9712 14.8366 11.9655Z" fill="#CFAF0E"/>
<path d="M14.3604 2.59693C14.4141 2.54326 14.4347 2.48739 14.4972 2.50059C14.5056 2.50191 14.513 2.53622 14.5104 2.55294C14.4919 2.64357 14.4295 2.60837 14.3604 2.59693Z" fill="#F1CB04"/>
<path d="M9.65087 11.0003C9.60863 11.0654 9.59192 11.1257 9.52197 11.1283C9.51361 11.1283 9.49513 11.0971 9.49777 11.083C9.51141 11.0153 9.55364 10.988 9.65087 11.0003Z" fill="#E9C506"/>
<path d="M9.48636 13.09C9.53827 13.0706 9.58051 13.0046 9.63594 13.0314C9.66718 13.0468 9.64606 13.1036 9.61218 13.1322C9.56555 13.1344 9.50088 13.1859 9.48636 13.09Z" fill="#EDC804"/>
<path d="M9.17692 2.4725C9.24442 2.48697 9.24793 2.5457 9.26765 2.59216C9.24442 2.59611 9.21549 2.61145 9.19708 2.60224C9.13528 2.57069 9.15895 2.52028 9.17692 2.4725Z" fill="#E2BF08"/>
<path d="M9.48637 13.0897C9.51442 13.1436 9.5679 13.1243 9.61173 13.1318C9.53984 13.2059 9.45087 13.1419 9.34085 13.1848C9.39652 13.113 9.43947 13.0976 9.48637 13.0897Z" fill="#B19610"/>
<path d="M10.1471 5.04013C10.1185 5.15628 10.0547 5.17343 9.97113 5.23943C9.99401 5.10304 10.0604 5.08852 10.1471 5.04013Z" fill="#D1B10E"/>
<path d="M8.85608 2.59519C8.91283 2.54151 8.93615 2.48476 8.99862 2.49972C9.00742 2.50148 9.0149 2.55207 9.0061 2.57231C8.97662 2.64182 8.92163 2.60487 8.85608 2.59519Z" fill="#E9C50B"/>
<path d="M14.7909 2.60175C14.7311 2.60219 14.6655 2.65234 14.6457 2.55863C14.6413 2.54104 14.6514 2.52124 14.6545 2.50232C14.7003 2.52168 14.7535 2.52872 14.7909 2.60175Z" fill="#E7C304"/>
<path d="M8.82695 11.9751C8.85642 12.0301 8.84806 12.0692 8.80671 12.1018C8.78823 12.1154 8.77108 12.111 8.76536 12.0899C8.75128 12.0389 8.76536 12.0002 8.82695 11.9751Z" fill="#F2CC03"/>
<path d="M13.6998 5.1576C13.6828 5.17688 13.6657 5.20055 13.663 5.1988C13.6354 5.18302 13.6034 5.16811 13.5872 5.14401C13.5732 5.12385 13.5824 5.08615 13.6196 5.09799C13.6477 5.10675 13.6696 5.13437 13.6998 5.1576Z" fill="#DBB909"/>
<path d="M13.3606 4.9516C13.4123 4.93713 13.4448 4.96168 13.4689 5.00288C13.4803 5.02304 13.4632 5.04583 13.4461 5.04145C13.4035 5.03093 13.3553 5.01953 13.3606 4.9516Z" fill="#C2A411"/>
<path d="M10.5585 4.8217C10.5901 4.75879 10.6302 4.74295 10.6768 4.74823C10.6852 4.74911 10.6966 4.79178 10.694 4.79354C10.6561 4.81202 10.6192 4.84062 10.5585 4.8217Z" fill="#C4A511"/>
<path d="M10.2451 11.8015C10.2363 11.8103 10.2201 11.8335 10.2126 11.8318C10.1903 11.8247 10.1627 11.8112 10.1513 11.7919C10.1381 11.7669 10.1671 11.7625 10.1841 11.7612C10.21 11.7581 10.2372 11.7581 10.2451 11.8015Z" fill="#C9AA11"/>
<path d="M13.5451 11.7936C13.4973 11.8151 13.4636 11.837 13.4579 11.8305C13.4377 11.8094 13.4263 11.7796 13.4119 11.7533C13.4272 11.7511 13.4456 11.7432 13.4583 11.7481C13.4842 11.7555 13.5061 11.7717 13.5451 11.7936Z" fill="#DAB80A"/>
<path d="M11.844 22.1273C9.78442 22.1273 7.72523 22.1273 5.66517 22.1273C5.46706 22.1273 5.40613 22.0506 5.44251 21.8581C5.4596 21.7661 5.50256 21.7126 5.60293 21.7249C5.6231 21.7267 5.64326 21.7253 5.66342 21.7253C9.77565 21.7253 13.8879 21.7258 18.0006 21.7231C18.1259 21.7231 18.2245 21.7323 18.2416 21.8866C18.26 22.0593 18.196 22.126 18.0014 22.126C15.9493 22.1273 13.8967 22.1273 11.844 22.1273Z" fill="#020203"/>
<path d="M11.2813 11.3238C11.2756 11.5127 11.1445 11.6678 11.0121 11.6516C10.8478 11.631 10.8263 11.4991 10.8276 11.372C10.8285 11.2072 10.9582 11.052 11.0783 11.0682C11.2335 11.0893 11.2694 11.2098 11.2813 11.3238Z" fill="#070702"/>
<path d="M12.853 11.4141C12.8438 11.5232 12.8166 11.6389 12.6624 11.6525C12.5291 11.6639 12.4046 11.5083 12.4038 11.3343C12.4029 11.1958 12.4458 11.0801 12.6041 11.0674C12.7334 11.0568 12.853 11.223 12.853 11.4141Z" fill="#060602"/>
<path d="M15.0411 4.22751C15.0411 4.51329 15.0354 4.80038 15.0428 5.08616C15.0472 5.22993 15.0034 5.29436 14.8513 5.28691C14.6584 5.27727 14.4642 5.27946 14.2718 5.28647C14.1509 5.29042 14.1053 5.24089 14.1053 5.12254C14.107 4.52337 14.107 3.92464 14.1053 3.32547C14.1053 3.20274 14.1601 3.16285 14.278 3.1668C14.4704 3.17337 14.6637 3.17469 14.8565 3.16636C14.9937 3.16066 15.0476 3.20625 15.0433 3.34914C15.0354 3.64193 15.0411 3.93472 15.0411 4.22751Z" fill="#030302"/>
<path d="M9.56307 4.22708C9.56307 4.51987 9.55912 4.81222 9.56482 5.10545C9.56745 5.23519 9.51661 5.2856 9.3895 5.28165C9.19006 5.27683 8.99107 5.27727 8.79076 5.28165C8.66803 5.28428 8.62903 5.22774 8.62946 5.11159C8.63209 4.51987 8.63297 3.92771 8.62903 3.33599C8.62815 3.20669 8.67373 3.15979 8.80435 3.16461C9.00334 3.17381 9.20321 3.17206 9.40177 3.16505C9.52449 3.16067 9.56657 3.20844 9.56482 3.32898C9.55912 3.62878 9.56307 3.92815 9.56307 4.22708Z" fill="#030302"/>
<path d="M7.6928 16.6418C7.87207 16.6418 8.05178 16.6449 8.23104 16.6392C8.32441 16.6361 8.35947 16.6663 8.35772 16.7636C8.35246 17.0555 8.3529 17.3483 8.35772 17.6403C8.35947 17.7349 8.32791 17.7674 8.23324 17.7652C7.87426 17.7612 7.51484 17.7612 7.15674 17.7652C7.06864 17.7674 7.04278 17.7376 7.04366 17.6512C7.04848 17.3532 7.05067 17.0538 7.04322 16.7553C7.04103 16.6484 7.08968 16.6374 7.17472 16.6396C7.34697 16.6449 7.52054 16.6418 7.6928 16.6418Z" fill="#030302"/>
<path d="M15.9703 17.7639C15.7967 17.7639 15.624 17.7568 15.4522 17.7661C15.3431 17.7722 15.319 17.731 15.3212 17.6302C15.3277 17.344 15.3277 17.0582 15.3212 16.7728C15.319 16.6676 15.3497 16.637 15.4553 16.6387C15.8002 16.6457 16.1461 16.6457 16.4915 16.6383C16.6054 16.6361 16.6396 16.672 16.6361 16.7864C16.6295 17.0648 16.6295 17.3435 16.6361 17.6223C16.6396 17.7376 16.5993 17.7717 16.4888 17.7669C16.3157 17.7582 16.1426 17.7639 15.9703 17.7639Z" fill="#040502"/>
<path d="M14.7912 5.08221C14.6286 5.08221 14.5042 5.08221 14.3591 5.08221C14.4274 4.88102 14.4928 4.6908 14.5752 4.45016C14.6562 4.68817 14.722 4.87971 14.7912 5.08221Z" fill="#FBD404"/>
<path d="M14.5681 3.99476C14.4866 3.75719 14.4235 3.57266 14.3613 3.38857C14.3841 3.37761 14.3955 3.36753 14.4064 3.36709C14.7983 3.33904 14.7983 3.33948 14.6725 3.70459C14.644 3.78568 14.6142 3.86589 14.5681 3.99476Z" fill="#FCD503"/>
<path d="M14.8666 4.49094C14.6619 4.24548 14.6619 4.22488 14.8666 3.95532C14.8666 4.13766 14.8666 4.30597 14.8666 4.49094Z" fill="#F2CC06"/>
<path d="M14.2907 3.97198C14.4599 4.14687 14.4735 4.30642 14.2907 4.47122C14.2907 4.30642 14.2907 4.14862 14.2907 3.97198Z" fill="#F6D005"/>
<path d="M9.10021 4.45016C9.17911 4.68422 9.24442 4.87708 9.31323 5.08046C9.1664 5.08046 9.03446 5.08046 8.88237 5.08046C8.95206 4.87664 9.02 4.68159 9.10021 4.45016Z" fill="#FBD404"/>
<path d="M8.88982 3.37061C9.0406 3.37061 9.17165 3.37061 9.31804 3.37061C9.24967 3.57267 9.18436 3.76465 9.10503 3.99651C9.02569 3.7664 8.95995 3.57354 8.88982 3.37061Z" fill="#FCD503"/>
<path d="M9.39652 3.94348C9.39652 4.1416 9.39652 4.31079 9.39652 4.48611C9.18174 4.25161 9.18087 4.224 9.39652 3.94348Z" fill="#F4CE06"/>
<path d="M8.8105 4.4743C8.8105 4.30116 8.8105 4.13899 8.8105 3.979C9.01037 4.17318 9.01125 4.21745 8.8105 4.4743Z" fill="#F9D204"/>
<path d="M7.46619 17.5789C7.73312 17.2655 7.74451 17.2655 7.9926 17.5789C7.81859 17.5789 7.65335 17.5789 7.46619 17.5789Z" fill="#E8C40A"/>
<path d="M7.25668 17.4619C7.25668 17.2874 7.25668 17.12 7.25668 16.9486C7.60163 17.2265 7.57753 17.1792 7.25668 17.4619Z" fill="#F1CC03"/>
<path d="M7.99829 16.8184C7.70243 17.1191 7.78571 17.1726 7.46399 16.8184C7.64107 16.8184 7.80763 16.8184 7.99829 16.8184Z" fill="#F1CB04"/>
<path d="M8.20124 16.9333C8.20124 17.1209 8.20124 17.2848 8.20124 17.4527C7.88916 17.2331 7.88785 17.2041 8.20124 16.9333Z" fill="#F9D204"/>
<path d="M15.6937 17.5671C15.958 17.2436 15.937 17.2646 16.1899 17.5662C16.0255 17.6017 15.8664 17.6021 15.6937 17.5671Z" fill="#E4C00C"/>
<path d="M15.6994 16.8272C15.7231 16.7934 15.7595 16.8088 15.7888 16.8088C15.9256 16.8053 16.0615 16.807 16.2079 16.807C15.9729 17.1222 15.9155 17.1235 15.6994 16.8272Z" fill="#F3CD05"/>
<path d="M16.3906 17.4535C16.1246 17.1914 16.1246 17.1914 16.3871 16.9609C16.4261 17.116 16.4279 17.2427 16.3906 17.4535Z" fill="#FED602"/>
<path d="M15.4798 17.4496C15.4798 17.2738 15.4798 17.1169 15.4798 16.9525C15.7774 17.1932 15.7774 17.2011 15.4798 17.4496Z" fill="#FED603"/>
<path d="M37.0303 4.57735H30.4414V12.3199H32.2936V6.07445H35.1781V12.3199H37.0303V4.57735Z" fill="white"/>
<path d="M38.3255 12.3199H40.2043V9.9155H41.4795C43.2596 9.9155 44.3717 8.86451 44.3717 7.25777C44.3717 5.66615 43.2824 4.57735 41.5365 4.57735H38.3255V12.3199ZM40.2043 8.44108V6.0858H41.1304C41.973 6.0858 42.4246 6.53946 42.4246 7.25777C42.4246 7.97229 41.973 8.44108 41.1304 8.44108H40.2043Z" fill="white"/>
<path d="M45.8899 12.3199L46.4023 10.6943H49.0856L49.598 12.3199H51.6172L48.9945 4.57735H46.4933L43.8707 12.3199H45.8899ZM46.8501 9.27281L47.7117 6.52812H47.7724L48.6378 9.27281H46.8501Z" fill="white"/>
<path d="M52.2938 12.3199H55.7817C57.5011 12.3199 58.4879 11.405 58.4879 10.1537C58.4879 9.03463 57.6719 8.33145 56.7306 8.28986V8.21425C57.5846 8.03656 58.1843 7.42033 58.1843 6.53568C58.1843 5.36749 57.2809 4.57735 55.535 4.57735H52.2938V12.3199ZM54.1725 10.8115V8.96658H55.368C56.0854 8.96658 56.5257 9.34464 56.5257 9.93819C56.5257 10.4864 56.1461 10.8115 55.3339 10.8115H54.1725ZM54.1725 7.76058V6.06311H55.2428C55.869 6.06311 56.2676 6.38446 56.2676 6.89862C56.2676 7.44302 55.8273 7.76058 55.2124 7.76058H54.1725Z" fill="white"/>
<path d="M59.2309 4.57735V12.3199H60.825L63.9182 7.85132H63.9676V12.3199H65.8463V4.57735H64.2295L61.1703 9.03841H61.1058V4.57735H59.2309Z" fill="white"/>
<path d="M66.613 6.09714H68.9738V12.3199H70.826V6.09714H73.1829V4.57735H66.613V6.09714Z" fill="white"/>
<path d="M73.9401 12.3199H79.36V10.8002H75.8189V9.20854H79.083V7.68497H75.8189V6.09714H79.36V4.57735H73.9401V12.3199Z" fill="white"/>
<path d="M80.0385 12.3199H80.5091C82.4296 12.3199 83.0938 11.2689 83.2229 8.61499L83.3443 6.05177H85.2458V12.3199H87.0638V4.57735H81.6098L81.4846 7.92693C81.4086 10.0403 81.0671 10.7321 80.251 10.8304L80.0385 10.8531V12.3199Z" fill="white"/>
<path d="M89.9883 7.30692V4.57735H88.1133V12.3199H91.0168C92.9183 12.3199 94.1443 11.2841 94.1443 9.78318C94.1443 8.27852 92.9183 7.30692 91.0168 7.30692H89.9883ZM89.9883 8.75865H91.0168C91.8366 8.75865 92.2845 9.1972 92.2807 9.76806C92.2845 10.3654 91.8366 10.838 91.0168 10.838H89.9883V8.75865Z" fill="white"/>
<path d="M102.298 7.38253C102.108 5.53005 100.723 4.4715 98.844 4.4715C96.7717 4.4715 95.1586 5.88921 95.1586 8.44864C95.1586 10.9967 96.7337 12.4258 98.844 12.4258C100.977 12.4258 102.157 10.9816 102.298 9.60928L100.4 9.59793C100.267 10.3427 99.7055 10.785 98.8819 10.785C97.7737 10.785 97.0753 9.98733 97.0753 8.44864C97.0753 6.97045 97.7585 6.11226 98.8933 6.11226C99.7473 6.11226 100.305 6.60751 100.4 7.38253H102.298Z" fill="white"/>
<path d="M102.958 6.09714H105.319V12.3199H107.171V6.09714H109.528V4.57735H102.958V6.09714Z" fill="white"/>
<path d="M110.285 12.3199H113.773C115.493 12.3199 116.48 11.405 116.48 10.1537C116.48 9.03463 115.664 8.33145 114.722 8.28986V8.21425C115.576 8.03656 116.176 7.42033 116.176 6.53568C116.176 5.36749 115.273 4.57735 113.527 4.57735H110.285V12.3199ZM112.164 10.8115V8.96658H113.36C114.077 8.96658 114.517 9.34464 114.517 9.93819C114.517 10.4864 114.138 10.8115 113.326 10.8115H112.164ZM112.164 7.76058V6.06311H113.234C113.861 6.06311 114.259 6.38446 114.259 6.89862C114.259 7.44302 113.819 7.76058 113.204 7.76058H112.164Z" fill="white"/>
<path d="M124.559 8.44864C124.559 5.88921 122.935 4.4715 120.847 4.4715C118.752 4.4715 117.139 5.88921 117.139 8.44864C117.139 10.9967 118.752 12.4258 120.847 12.4258C122.935 12.4258 124.559 11.0081 124.559 8.44864ZM122.639 8.44864C122.639 9.96465 121.971 10.785 120.847 10.785C119.728 10.785 119.056 9.96465 119.056 8.44864C119.056 6.93264 119.728 6.11226 120.847 6.11226C121.971 6.11226 122.639 6.93264 122.639 8.44864Z" fill="white"/>
<path d="M29.9025 17.8675H32.2633V24.0903H34.1154V17.8675H36.4724V16.3477H29.9025V17.8675Z" fill="white"/>
<path d="M37.2296 24.0903H40.7176C42.4369 24.0903 43.4238 23.1754 43.4238 21.924C43.4238 20.8049 42.6077 20.1018 41.6665 20.0602V19.9846C42.5204 19.8069 43.1201 19.1906 43.1201 18.306C43.1201 17.1378 42.2168 16.3477 40.4709 16.3477H37.2296V24.0903ZM39.1083 22.5818V20.7369H40.3039C41.0212 20.7369 41.4615 21.115 41.4615 21.7085C41.4615 22.2567 41.082 22.5818 40.2698 22.5818H39.1083ZM39.1083 19.5309V17.8334H40.1787C40.8049 17.8334 41.2034 18.1548 41.2034 18.6689C41.2034 19.2133 40.7632 19.5309 40.1483 19.5309H39.1083Z" fill="white"/>
<path d="M44.1667 24.0903H49.5866V22.5705H46.0455V20.9789H49.3096V19.4553H46.0455V17.8675H49.5866V16.3477H44.1667V24.0903Z" fill="white"/>
<path d="M50.6029 24.0903H52.4816V21.6858H53.7569C55.5369 21.6858 56.649 20.6348 56.649 19.0281C56.649 17.4365 55.5597 16.3477 53.8138 16.3477H50.6029V24.0903ZM52.4816 20.2114V17.8561H53.4077C54.2503 17.8561 54.702 18.3098 54.702 19.0281C54.702 19.7426 54.2503 20.2114 53.4077 20.2114H52.4816Z" fill="white"/>
<path d="M64.4705 19.1528C64.2807 17.3004 62.8954 16.2418 61.0166 16.2418C58.9443 16.2418 57.3313 17.6595 57.3313 20.219C57.3313 22.7671 58.9064 24.1961 61.0166 24.1961C63.1497 24.1961 64.33 22.7519 64.4705 21.3796L62.5728 21.3682C62.4399 22.113 61.8782 22.5553 61.0546 22.5553C59.9463 22.5553 59.248 21.7576 59.248 20.219C59.248 18.7408 59.9311 17.8826 61.066 17.8826C61.9199 17.8826 62.4779 18.3778 62.5728 19.1528H64.4705Z" fill="white"/>
<path d="M70.0878 24.0903H72.4523L69.359 20.1358L72.8432 16.3477H70.3952L67.6359 19.3532H67.264V16.3477H65.3852V24.0903H67.264V20.8768H67.6131L70.0878 24.0903Z" fill="white"/>
<path d="M80.2747 20.219C80.2747 17.6595 78.6503 16.2418 76.5628 16.2418C74.4677 16.2418 72.8547 17.6595 72.8547 20.219C72.8547 22.7671 74.4677 24.1961 76.5628 24.1961C78.6503 24.1961 80.2747 22.7784 80.2747 20.219ZM78.3542 20.219C78.3542 21.735 77.6862 22.5553 76.5628 22.5553C75.4431 22.5553 74.7714 21.735 74.7714 20.219C74.7714 18.703 75.4431 17.8826 76.5628 17.8826C77.6862 17.8826 78.3542 18.703 78.3542 20.219Z" fill="white"/>
<path d="M81.2113 16.3477V24.0903H82.8054L85.8986 19.6216H85.948V24.0903H87.8267V16.3477H86.2099L83.1507 20.8087H83.0862V16.3477H81.2113ZM85.2686 14.291C85.2648 14.6351 85.0523 14.9489 84.5095 14.9489C83.9516 14.9489 83.7428 14.6237 83.7466 14.291H82.5359C82.5321 15.24 83.295 15.8638 84.5095 15.8638C85.7241 15.8638 86.4869 15.24 86.4907 14.291H85.2686Z" fill="white"/>
<path d="M98.3202 20.219C98.3202 17.6595 96.6958 16.2418 94.6083 16.2418C92.5132 16.2418 90.9001 17.6595 90.9001 20.219C90.9001 22.7671 92.5132 24.1961 94.6083 24.1961C96.6958 24.1961 98.3202 22.7784 98.3202 20.219ZM96.3997 20.219C96.3997 21.735 95.7317 22.5553 94.6083 22.5553C93.4886 22.5553 92.8168 21.735 92.8168 20.219C92.8168 18.703 93.4886 17.8826 94.6083 17.8826C95.7317 17.8826 96.3997 18.703 96.3997 20.219Z" fill="white"/>
<path d="M99.2568 24.0903H102.16C104.062 24.0903 105.288 23.0544 105.288 21.5535C105.288 20.0488 104.062 19.0772 102.16 19.0772H101.136V17.8675H104.567V16.3477H99.2568V24.0903ZM101.136 22.6083V20.529H102.16C102.98 20.529 103.428 20.9675 103.428 21.5384C103.428 22.1357 102.98 22.6083 102.16 22.6083H101.136Z" fill="white"/>
<path d="M105.689 24.0903H106.16C108.08 24.0903 108.744 23.0393 108.873 20.3853L108.995 17.8221H110.896V24.0903H112.714V16.3477H107.26L107.135 19.6972C107.059 21.8106 106.718 22.5024 105.902 22.6007L105.689 22.6234V24.0903Z" fill="white"/>
<path d="M115.407 24.0903L115.92 22.4646H118.603L119.115 24.0903H121.135L118.512 16.3477H116.011L113.388 24.0903H115.407ZM116.368 21.0431L117.229 18.2984H117.29L118.155 21.0431H116.368Z" fill="white"/>
<path d="M128.502 19.1528C128.312 17.3004 126.927 16.2418 125.048 16.2418C122.975 16.2418 121.362 17.6595 121.362 20.219C121.362 22.7671 122.938 24.1961 125.048 24.1961C127.181 24.1961 128.361 22.7519 128.502 21.3796L126.604 21.3682C126.471 22.113 125.909 22.5553 125.086 22.5553C123.977 22.5553 123.279 21.7576 123.279 20.219C123.279 18.7408 123.962 17.8826 125.097 17.8826C125.951 17.8826 126.509 18.3778 126.604 19.1528H128.502Z" fill="white"/>
<path d="M129.162 17.8675H131.523V24.0903H133.375V17.8675H135.732V16.3477H129.162V17.8675Z" fill="white"/>
<path d="M136.489 16.3477V24.0903H138.083L141.177 19.6216H141.226V24.0903H143.105V16.3477H141.488L138.429 20.8087H138.364V16.3477H136.489Z" fill="white"/>
</svg>
