<svg width="24" height="24" viewBox="0 0 24 24" fill="none" xmlns="http://www.w3.org/2000/svg">
<path d="M19.4262 12.4546C19.0867 11.9996 19.1838 11.7971 19.4262 11.3904C19.4306 11.3858 22.2333 7.27593 22.5221 5.88214L22.5238 5.88121C22.6673 5.37329 22.5238 5 21.8299 5H19.5339C18.9493 5 18.6798 5.32036 18.5354 5.67879C18.5354 5.67879 17.3664 8.64836 15.7126 10.5733C15.1788 11.1295 14.9321 11.3078 14.6407 11.3078C14.4972 11.3078 14.2741 11.1295 14.2741 10.6216V5.88121C14.2741 5.27207 14.1104 5 13.6265 5H10.0162C9.64952 5 9.43163 5.28414 9.43163 5.54879C9.43163 6.12636 10.2585 6.25914 10.3443 7.88414V11.4099C10.3443 12.1825 10.2122 12.3246 9.91902 12.3246C9.1385 12.3246 7.24406 9.34293 6.12139 5.93043C5.89476 5.26836 5.67338 5.00093 5.08448 5.00093H2.78753C2.13213 5.00093 2 5.32129 2 5.67971C2 6.313 2.78053 9.46179 5.62963 13.6218C7.52844 16.4614 10.2025 18 12.6351 18C14.0973 18 14.2758 17.6583 14.2758 17.0705C14.2758 14.3572 14.1437 14.1009 14.8761 14.1009C15.2156 14.1009 15.8001 14.2792 17.1652 15.6489C18.7253 17.2729 18.9817 18 19.855 18H22.1511C22.8056 18 23.1372 17.6583 22.9465 16.9841C22.5098 15.5662 19.5592 12.6496 19.4262 12.4546V12.4546Z" stroke="#3B3858" stroke-width="2"/>
</svg>
